<svg width="50" height="50" viewBox="0 0 50 50" fill="none" xmlns="http://www.w3.org/2000/svg">
<g clip-path="url(#clip0)">
<path d="M6.25044 18.75C4.52547 18.75 3.12549 20.15 3.12549 21.875V34.3748C3.12549 36.0997 4.52547 37.4997 6.25044 37.4997C7.97542 37.4997 9.3754 36.0997 9.3754 34.3748V21.875C9.3754 20.15 7.97542 18.75 6.25044 18.75Z" fill="#8BC34A"/>
<path d="M43.75 18.75C42.025 18.75 40.625 20.15 40.625 21.875V34.3748C40.625 36.0997 42.025 37.4997 43.75 37.4997C45.4749 37.4997 46.8749 36.0997 46.8749 34.3748V21.875C46.8749 20.15 45.4749 18.75 43.75 18.75Z" fill="#8BC34A"/>
<path d="M12.5005 37.6814C12.5005 39.4064 13.9005 40.8064 15.6254 40.8064V46.875C15.6254 48.6 17.0254 50 18.7504 50C20.4754 50 21.8754 48.6 21.8754 46.875V40.8064H28.1253V46.875C28.1253 48.6 29.5253 50 31.2502 50C32.9752 50 34.3752 48.6 34.3752 46.875V40.8064C36.1002 40.8064 37.5001 39.4064 37.5001 37.6814V18.9316H12.5005V37.6814Z" fill="#8BC34A"/>
<path d="M32.8002 5.92874L35.5814 2.55691C36.1314 1.89129 36.0377 0.906932 35.3721 0.356939C34.7033 -0.189928 33.7221 -0.0993046 33.1721 0.566311L30.1315 4.25064C28.5628 3.54127 26.8347 3.12565 25.0003 3.12565C23.141 3.12565 21.391 3.5569 19.8066 4.28814L16.8473 0.588186C16.3067 -0.0836799 15.3255 -0.196178 14.6505 0.344439C13.9786 0.885057 13.8692 1.86629 14.4067 2.54128L17.1504 5.97249C14.3348 8.26308 12.5005 11.713 12.5005 15.6255H37.5001C37.5001 11.688 35.6439 8.21933 32.8002 5.92874ZM21.8754 10.938C21.0129 10.938 20.3129 10.2381 20.3129 9.37557C20.3129 8.51308 21.0129 7.81309 21.8754 7.81309C22.7378 7.81309 23.4378 8.51308 23.4378 9.37557C23.4378 10.2381 22.7378 10.938 21.8754 10.938ZM28.1253 10.938C27.2628 10.938 26.5628 10.2381 26.5628 9.37557C26.5628 8.51308 27.2628 7.81309 28.1253 7.81309C28.9878 7.81309 29.6878 8.51308 29.6878 9.37557C29.6878 10.2381 28.9878 10.938 28.1253 10.938Z" fill="#8BC34A"/>
</g>
<defs>
<clipPath id="clip0">
<rect width="50" height="50" fill="white"/>
</clipPath>
</defs>
</svg>
