<svg width="47" height="50" viewBox="0 0 47 50" fill="none" xmlns="http://www.w3.org/2000/svg">
<g clip-path="url(#clip0)">
<path d="M3.70638 38.9297L23.3985 49.7529L43.192 38.7831L46.8818 8.18082L23.3736 0.105957L0.0151367 8.3263L3.70638 38.9297Z" fill="#B3B3B3"/>
<path d="M23.3188 47.1672L41.1129 37.3192L44.5516 9.94966L23.3188 2.70898V47.1672Z" fill="#A6120D"/>
<path d="M23.3187 47.167V2.70801L2.63623 10.08L5.79922 37.4498L23.3187 47.167Z" fill="#DD1B16"/>
<path d="M29.1637 26.3761L23.319 29.1091H17.1589L14.2631 36.3521L8.87695 36.4518L23.319 4.32324L29.1637 26.3761ZM28.5987 25.0001L23.3577 14.6247L19.0589 24.8215H23.3188L28.5987 25.0001Z" fill="#F2F2F2"/>
<path d="M28.2355 24.8295H23.3299L23.3188 29.1026L30.1022 29.1091L33.2725 36.4529L38.4262 36.5484L23.3188 4.32324L23.3575 14.6247L28.2355 24.8295Z" fill="#B3B3B3"/>
</g>
<defs>
<clipPath id="clip0">
<rect width="46.8927" height="50" fill="white"/>
</clipPath>
</defs>
</svg>
