<svg width="50" height="50" viewBox="0 0 50 50" fill="none" xmlns="http://www.w3.org/2000/svg">
<path d="M13.623 49.2676C11.6005 49.2676 9.96094 47.628 9.96094 45.6055V4.39453C9.96094 2.37197 11.6005 0.732422 13.623 0.732422H36.377C38.3995 0.732422 40.0391 2.37197 40.0391 4.39453V45.6055C40.0391 47.628 38.3995 49.2676 36.377 49.2676H13.623Z" fill="#E6F7FE"/>
<path d="M16.3574 49.2676H13.623C11.6006 49.2676 9.96094 47.6279 9.96094 45.6055V4.39453C9.96094 2.37207 11.6006 0.732422 13.623 0.732422H16.3574C14.335 0.732422 12.6953 2.37207 12.6953 4.39453V45.6055C12.6953 47.6279 14.335 49.2676 16.3574 49.2676Z" fill="#D3EFFD"/>
<path d="M27.3077 5.39453H22.6923C22.3099 5.39453 22 5.0666 22 4.66211C22 4.25762 22.3099 3.92969 22.6923 3.92969H27.3077C27.6901 3.92969 28 4.25762 28 4.66211C28 5.0666 27.6901 5.39453 27.3077 5.39453Z" fill="#1B1C4A"/>
<path d="M24.9999 40.8692L9.96086 31.3979L1.25715 25.9166C1.01389 25.7634 1.01389 25.4087 1.25715 25.2555L9.96086 19.7741L24.5836 10.565C24.838 10.4048 25.1618 10.4048 25.4162 10.565L40.039 19.7741L48.7427 25.2554C48.986 25.4087 48.986 25.7634 48.7427 25.9165L40.039 31.3979L24.9999 40.8692Z" fill="#49D8B5"/>
<path d="M10.6936 19.3135V31.8584L9.96118 31.3974L9.22876 30.9365L1.25708 25.916C1.01392 25.7637 1.01392 25.4082 1.25708 25.2559L9.22876 20.2354L9.96118 19.7744L10.6936 19.3135Z" fill="#03BB8F"/>
<path d="M48.7432 25.916L40.7715 30.9365L40.0391 31.3974L39.3066 31.8584V19.3135L40.0391 19.7744L40.7715 20.2354L48.7432 25.2559C48.9863 25.4082 48.9863 25.7637 48.7432 25.916Z" fill="#03BB8F"/>
<path d="M33.4473 20.338V30.8341C33.4473 31.0021 33.3613 31.1574 33.2207 31.2462L25.2529 36.2706C25.1748 36.3185 25.0879 36.3409 25 36.3409C24.9092 36.34 24.8184 36.3136 24.7393 36.2638L16.876 31.2472C16.7354 31.1583 16.6504 31.0031 16.6504 30.8361V20.3361C16.6504 20.254 16.6709 20.1749 16.709 20.1056C16.7471 20.0324 16.8047 19.9699 16.876 19.9249L24.7393 14.9083C24.8984 14.8068 25.1025 14.8058 25.2617 14.9064L33.2197 19.9249C33.292 19.9699 33.3496 20.0324 33.3887 20.1056C33.4268 20.1759 33.4473 20.256 33.4473 20.338Z" fill="#769196"/>
<path d="M25 25.3057V36.3408C24.9092 36.3398 24.8184 36.3135 24.7393 36.2637L16.876 31.2471C16.7354 31.1582 16.6504 31.0029 16.6504 30.8359V20.3359C16.6504 20.2539 16.6709 20.1748 16.709 20.1055L24.7393 25.2285C24.8184 25.2803 24.9092 25.3057 25 25.3057Z" fill="#4F5F62"/>
<path d="M33.4473 20.3379V30.834C33.4473 31.002 33.3613 31.1572 33.2207 31.2461L25.2529 36.2705C25.1748 36.3184 25.0879 36.3408 25 36.3408V25.3057C25.0908 25.3057 25.1816 25.2812 25.2617 25.2305L33.3887 20.1055C33.4268 20.1758 33.4473 20.2559 33.4473 20.3379Z" fill="#1B1C4A"/>
<path d="M39.3066 31.8584V33.8115L25.4163 42.5601C25.1619 42.7203 24.838 42.7203 24.5836 42.5601L10.6934 33.8115V31.8584L24.5837 40.6069C24.8381 40.7672 25.1619 40.7672 25.4164 40.6069L39.3066 31.8584Z" fill="#D3EFFD"/>
<path d="M36.377 50H13.623C11.1999 50 9.22852 48.0286 9.22852 45.6055V4.39453C9.22852 1.97139 11.1999 0 13.623 0H36.377C38.8001 0 40.7715 1.97139 40.7715 4.39453V45.6055C40.7715 48.0286 38.8001 50 36.377 50ZM13.623 1.46484C12.0076 1.46484 10.6934 2.7791 10.6934 4.39453V45.6055C10.6934 47.2209 12.0076 48.5352 13.623 48.5352H36.377C37.9924 48.5352 39.3066 47.2209 39.3066 45.6055V4.39453C39.3066 2.7791 37.9924 1.46484 36.377 1.46484H13.623Z" fill="#1B1C4A"/>
</svg>
