<svg width="50" height="50" viewBox="0 0 50 50" fill="none" xmlns="http://www.w3.org/2000/svg">
<path d="M18.5537 25.0237L8.17969 35.3897L21.2157 48.4257C23.3137 50.5217 26.7117 50.5217 28.8097 48.4257L41.8357 35.3897L31.4457 25.0237L25.0217 18.5557L18.5537 25.0237Z" fill="#00AEE6"/>
<path d="M8.18 14.6101L1.572 21.2041C-0.524 23.3021 -0.524 26.7001 1.572 28.7981L8.18 35.3901L18.554 25.0241L25.022 18.5561L14.608 8.18213L8.18 14.6101Z" fill="#123962"/>
<path d="M35.3867 28.9456L41.8348 35.3896L48.4268 28.7976C50.5228 26.6996 50.5228 23.3016 48.4268 21.2036L45.7808 18.5576L35.3867 28.9456Z" fill="#B1D4E5"/>
<path d="M31.44 25L24.998 18.556L35.386 8.16797L24.998 18.556L31.44 25Z" fill="#B1D4E5"/>
<path d="M24.998 18.556L31.44 25L35.386 28.946L45.7759 18.556L41.8359 14.61L35.386 8.16797L24.998 18.556Z" fill="#2754BA"/>
<path d="M35.3865 8.18195L28.7944 1.57395C26.6964 -0.522047 23.2984 -0.522047 21.2004 1.57395L14.6084 8.18195L25.0224 18.556L35.3865 8.18195Z" fill="#799EB2"/>
</svg>
