<svg width="50" height="50" viewBox="0 0 50 50" fill="none" xmlns="http://www.w3.org/2000/svg">
<g clip-path="url(#clip0)">
<path d="M36.851 19.6183V24.512C36.8573 24.8438 36.7683 25.1703 36.5943 25.453C36.4203 25.7355 36.1688 25.9621 35.8698 26.1058C32.4635 27.7396 28.7523 28.6403 24.976 28.7495C21.2028 28.6435 17.4937 27.7471 14.0885 26.1183C13.7868 25.974 13.5331 25.7456 13.3579 25.4608C13.1828 25.1758 13.0936 24.8463 13.101 24.512V19.6183C13.1092 19.394 13.1719 19.1753 13.2837 18.9806C13.3955 18.7861 13.5529 18.6218 13.7425 18.5018C13.932 18.3818 14.148 18.3098 14.3716 18.292C14.5952 18.2741 14.8199 18.311 15.026 18.3995C18.1662 19.7821 21.5462 20.538 24.976 20.6245C28.4072 20.5418 31.789 19.7903 34.9323 18.412C35.1372 18.3251 35.36 18.2891 35.5818 18.307C35.8038 18.3246 36.018 18.396 36.2065 18.5143C36.3948 18.6328 36.5518 18.795 36.6642 18.9873C36.7763 19.1795 36.8405 19.396 36.851 19.6183Z" fill="#0066FF"/>
<path d="M49.6882 31.0812C49.4343 34.0507 48.0662 36.8138 45.8588 38.8162C43.6513 40.8183 40.7682 41.9112 37.7882 41.875H31.2257L18.7257 50V41.875L31.2257 33.75H37.8007C38.731 33.7837 39.6393 33.463 40.3423 32.8527C41.0453 32.2425 41.4907 31.3883 41.5882 30.4625C41.9703 24.2173 41.939 17.9537 41.4945 11.7125C41.4192 10.88 41.0468 10.1023 40.4455 9.5217C39.8443 8.94103 39.0542 8.59613 38.2195 8.55C33.957 8.2875 29.4695 8.125 24.9757 8.125C20.482 8.125 15.9944 8.275 11.7319 8.575C10.8973 8.62113 10.1071 8.96603 9.50583 9.5467C8.90452 10.1274 8.53222 10.905 8.45695 11.7375C8.01243 17.9787 7.98112 24.2423 8.3632 30.4875C8.46663 31.4088 8.91442 32.2568 9.6168 32.862C10.3192 33.467 11.2243 33.7842 12.1507 33.75H18.7257V41.875H12.1632C9.18655 41.9047 6.30868 40.8082 4.10643 38.8052C1.9042 36.8023 0.540328 34.0412 0.288203 31.075C-0.125154 24.4137 -0.093834 17.7322 0.381953 11.075C0.618193 8.31435 1.83322 5.729 3.80783 3.78532C5.78245 1.84165 8.38667 0.667612 11.1507 0.475C15.6007 0.15625 20.2882 0 24.9757 0C29.6632 0 34.3507 0.15625 38.8007 0.475C41.5732 0.662663 44.1865 1.83772 46.1667 3.78705C48.147 5.73638 49.3632 8.3309 49.5945 11.1C50.0693 17.751 50.1007 24.4262 49.6882 31.0812Z" fill="#0066FF"/>
</g>
<defs>
<clipPath id="clip0">
<rect width="50" height="50" fill="white"/>
</clipPath>
</defs>
</svg>
