<svg width="50" height="50" viewBox="0 0 50 50" fill="none" xmlns="http://www.w3.org/2000/svg">
<path fill-rule="evenodd" clip-rule="evenodd" d="M34.1677 10.4511L36.278 8.34084L41.7559 13.8187L39.6456 15.929C40.6534 17.5354 41.4046 19.3195 41.841 21.2234H44.8229V25.0969C26.4147 25.0969 23.585 25.0969 5.17676 25.0969V21.2234H8.15871C8.59473 19.3192 9.3466 17.5354 10.3541 15.929L8.24377 13.8187L13.7217 8.34084L15.832 10.4511C17.4383 9.44328 19.2225 8.69217 21.1264 8.25577V5.27344H28.8733V8.25539C30.7772 8.69217 32.5609 9.44328 34.1677 10.4511V10.4511Z" fill="#95A1B4"/>
<path fill-rule="evenodd" clip-rule="evenodd" d="M34.1547 25.0965C34.1547 20.0409 30.0562 15.9424 25.0002 15.9424C19.9446 15.9424 15.8457 20.0409 15.8457 25.0965H34.1547Z" fill="#55B2FF"/>
<path fill-rule="evenodd" clip-rule="evenodd" d="M49.0234 24.1199H45.7996V21.2234C45.7996 20.6841 45.3625 20.2469 44.8231 20.2469H42.6018C42.2016 18.7912 41.6229 17.3958 40.8745 16.0812L42.4465 14.5092C42.6296 14.3261 42.7326 14.0774 42.7326 13.8187C42.7326 13.5597 42.6296 13.3114 42.4465 13.1279L36.9686 7.64999C36.5875 7.26891 35.9692 7.26891 35.5877 7.64999L34.0153 9.22241C32.7007 8.47359 31.3049 7.8949 29.85 7.49474V5.27344C29.85 4.73404 29.4128 4.29688 28.8734 4.29688H21.1266C20.5872 4.29688 20.15 4.73404 20.15 5.27344V7.49474C18.6947 7.8949 17.2989 8.47359 15.9843 9.22241L14.4123 7.64999C14.0308 7.26891 13.4125 7.26891 13.031 7.64999L7.5531 13.1279C7.37 13.311 7.267 13.5593 7.267 13.8184C7.267 14.0774 7.37 14.3257 7.5531 14.5088L9.12552 16.0812C8.37631 17.3965 7.79762 18.7923 7.39784 20.2465H5.17693C4.63753 20.2465 4.20036 20.6841 4.20036 21.2231V24.1199H0.976562C0.437164 24.1199 0 24.5575 0 25.0965C0 25.6359 0.437164 26.0731 0.976562 26.0731H21.0938C21.6331 26.0731 22.0703 25.6359 22.0703 25.0965C22.0703 24.5575 21.6331 24.1199 21.0938 24.1199H16.8827C17.3672 20.0699 20.8214 16.9189 25 16.9189C29.1786 16.9189 32.6328 20.0699 33.1173 24.1199H28.9062C28.3669 24.1199 27.9297 24.5575 27.9297 25.0965C27.9297 25.6359 28.3669 26.0731 28.9062 26.0731H49.0234C49.5628 26.0731 50 25.6359 50 25.0965C50 24.5575 49.5628 24.1199 49.0234 24.1199V24.1199ZM25 14.9658C19.7433 14.9658 15.4091 18.9907 14.9162 24.1199H6.15349V22.2H8.15887C8.61435 22.2 9.00917 21.8853 9.11102 21.4413C9.51576 19.6728 10.2127 17.9928 11.1816 16.4478C11.4235 16.0622 11.367 15.5602 11.0451 15.2382L9.62486 13.8184L13.7218 9.72176L15.1417 11.1416C15.464 11.4635 15.9657 11.52 16.3513 11.2782C17.8947 10.3096 19.5747 9.61304 21.3448 9.20715C21.7884 9.10568 22.1031 8.71086 22.1031 8.25539V6.25H27.8969V8.25539C27.8969 8.71086 28.2116 9.10568 28.6552 9.20753C30.4249 9.61304 32.1053 10.31 33.6491 11.2782C34.0347 11.5204 34.5364 11.4635 34.8583 11.1416L36.2782 9.72176L40.3751 13.8187L38.9553 15.2382C38.6333 15.5605 38.5765 16.0622 38.8187 16.4478C39.7869 17.9913 40.4835 19.6712 40.8894 21.4417C40.9908 21.8853 41.3857 22.2 41.8411 22.2H43.8469V24.1203H35.0838C34.5909 18.9907 30.2567 14.9658 25 14.9658Z" fill="black"/>
<path fill-rule="evenodd" clip-rule="evenodd" d="M9.83348 31.6279H11.8934C13.0493 31.6279 13.9892 32.5683 13.9892 33.7241C13.9892 34.2631 14.4268 34.7007 14.9658 34.7007C15.5052 34.7007 15.9423 34.2631 15.9423 33.7241C15.9423 31.4914 14.1262 29.6748 11.8934 29.6748H9.83348C7.60074 29.6748 5.78418 31.4914 5.78418 33.7241V41.196C5.78418 43.4287 7.60074 45.2453 9.83348 45.2453H11.8934C14.1262 45.2453 15.9423 43.4287 15.9423 41.196C15.9423 40.6569 15.5052 40.2194 14.9658 40.2194C14.4268 40.2194 13.9892 40.6569 13.9892 41.196C13.9892 42.3518 13.0493 43.2921 11.8934 43.2921H9.83348C8.67763 43.2921 7.7373 42.3518 7.7373 41.196V33.7241C7.7373 32.5683 8.67763 31.6279 9.83348 31.6279V31.6279Z" fill="black"/>
<path fill-rule="evenodd" clip-rule="evenodd" d="M31.7272 29.8708C31.2977 29.7586 30.846 29.9501 30.629 30.3377L25.547 39.3965L20.4651 30.3377C20.2477 29.9501 19.796 29.7583 19.3665 29.8708C18.9366 29.9829 18.6367 30.3713 18.6367 30.8157V44.105C18.6367 44.6444 19.0739 45.0815 19.6133 45.0815C20.1527 45.0815 20.5898 44.6444 20.5898 44.105V34.5522L24.6952 41.8703C24.868 42.1781 25.1934 42.3689 25.5467 42.3689C25.8999 42.3689 26.2257 42.1781 26.3985 41.8703L30.5039 34.5522V44.105C30.5039 44.6444 30.941 45.0815 31.4804 45.0815C32.0198 45.0815 32.457 44.6444 32.457 44.105V30.8157C32.457 30.3713 32.1572 29.9829 31.7272 29.8708V29.8708Z" fill="black"/>
<path fill-rule="evenodd" clip-rule="evenodd" d="M39.6204 36.4838C38.1631 36.4838 36.9775 35.2982 36.9775 33.8406C36.9775 32.3834 38.1631 31.1978 39.6204 31.1978C40.4726 31.1978 41.2771 31.6124 41.7734 32.3071C42.0866 32.7461 42.6965 32.8476 43.1352 32.5344C43.5743 32.2209 43.6761 31.6113 43.3626 31.1722C42.5008 29.9652 41.102 29.2446 39.6204 29.2446C37.0863 29.2446 35.0244 31.3065 35.0244 33.8406C35.0244 36.3751 37.0863 38.4369 39.6204 38.4369C41.0776 38.4369 42.2632 39.6221 42.2632 41.0793C42.2632 42.5369 41.0776 43.7225 39.6204 43.7225C38.6346 43.7225 37.7374 43.1797 37.2785 42.3065C37.0279 41.8289 36.4374 41.6454 35.9602 41.8961C35.4826 42.1471 35.2987 42.7372 35.5497 43.2148C36.347 44.7327 37.9068 45.6757 39.6204 45.6757C42.1545 45.6757 44.2163 43.6138 44.2163 41.0793C44.2163 38.5452 42.1545 36.4838 39.6204 36.4838V36.4838Z" fill="black"/>
<path fill-rule="evenodd" clip-rule="evenodd" d="M25.9766 25.0967C25.9766 24.5592 25.5379 24.1201 25 24.1201C24.4621 24.1201 24.0234 24.5592 24.0234 25.0967C24.0234 25.6346 24.4621 26.0732 25 26.0732C25.5379 26.0732 25.9766 25.6346 25.9766 25.0967Z" fill="black"/>
</svg>
