<svg width="51" height="50" viewBox="0 0 51 50" fill="none" xmlns="http://www.w3.org/2000/svg">
<g clip-path="url(#clip0)">
<path fill-rule="evenodd" clip-rule="evenodd" d="M39.3555 26.7183C36.6612 26.717 34.0498 27.6501 31.9663 29.3586C29.8828 31.067 28.4563 33.445 27.9297 36.0874C27.4031 38.7298 27.8091 41.473 29.0784 43.8496C30.3478 46.2262 32.402 48.0891 34.891 49.1208C37.3799 50.1526 40.1497 50.2893 42.7282 49.5077C45.3067 48.7262 47.5344 47.0747 49.0316 44.8347C50.5289 42.5946 51.2031 39.9047 50.9393 37.2233C50.6756 34.5419 49.4901 32.035 47.5851 30.1296C46.5063 29.0462 45.2237 28.1869 43.8112 27.6014C42.3988 27.016 40.8845 26.7158 39.3555 26.7183ZM35.8819 41.1854V35.5247C35.9151 35.1097 35.6287 34.9479 35.1722 34.9645H34.0766V33.4372H36.438V31.5407H37.766V33.4538H38.9405V31.5407H40.2768V33.4787C40.5715 33.4787 40.7375 33.4995 41.0072 33.5161C42.2232 33.5866 43.0823 33.7817 43.6093 34.9686C43.7586 35.2927 43.8364 35.6451 43.8376 36.002C43.8443 36.3916 43.7281 36.7735 43.5056 37.0934C43.2798 37.4691 42.9373 37.7606 42.5303 37.9235C45.7134 38.3385 45.1282 42.8496 41.7957 43.2023C41.5135 43.2314 40.9657 43.2687 40.2768 43.2895V45.2234H38.9488V43.3144H37.766V45.2234H36.4339V43.3144H34.0725L34.4003 41.837H35.4544C35.7948 41.8868 35.911 41.6461 35.8695 41.2145L35.8819 41.1854ZM40.2851 35.2218V37.4462C41.8746 37.0602 41.7708 35.6326 40.2851 35.2218ZM40.2851 38.8116V41.5631C40.3877 41.5509 40.489 41.5301 40.5881 41.5008C42.2025 41.1979 42.5718 39.3179 40.6462 38.8904C40.5284 38.8535 40.4076 38.8271 40.2851 38.8116ZM38.9488 41.6129V38.7618H38.2723V41.6129H38.9488ZM38.9488 37.5417V35.1097H38.2723V37.5417H38.9488Z" fill="#F7931A"/>
<path fill-rule="evenodd" clip-rule="evenodd" d="M11.6407 1.51934e-05C8.94632 -0.00121727 6.33491 0.931883 4.25146 2.6403C2.168 4.34873 0.741425 6.72675 0.214831 9.36913C-0.311764 12.0115 0.0942113 14.7547 1.36357 17.1313C2.63294 19.5079 4.68713 21.3708 7.17611 22.4026C9.66509 23.4343 12.4348 23.5711 15.0133 22.7895C17.5918 22.0079 19.8195 20.3564 21.3168 18.1164C22.8141 15.8764 23.4883 13.1865 23.2245 10.5051C22.9607 7.82367 21.7753 5.3167 19.8702 3.41137C18.7914 2.3279 17.5088 1.46867 16.0964 0.88318C14.684 0.297694 13.1696 -0.00246072 11.6407 1.51934e-05ZM12.8234 5.61505C13.2116 5.67892 13.5897 5.79333 13.9481 5.95536L14.0228 5.91801C14.2441 5.80858 14.4948 5.7733 14.7377 5.8174C14.9806 5.8615 15.2029 5.98263 15.3716 6.16286C15.4908 6.30181 15.5761 6.46664 15.6206 6.64427C15.7285 7.28579 15.7285 7.94083 15.6206 8.58235C15.5761 8.75999 15.4908 8.92481 15.3716 9.06376C14.8985 9.69457 13.7821 9.47877 13.4708 8.73175C13.4151 8.59935 13.3787 8.45956 13.3629 8.31675C13.1662 8.17339 12.9475 8.06269 12.7155 7.98889C12.4289 7.90287 12.1308 7.86089 11.8316 7.86439C11.5345 7.85951 11.238 7.88875 10.9476 7.95154C9.98064 8.19225 9.44943 9.19656 10.599 9.63647C10.8515 9.72797 11.1111 9.79875 11.3751 9.84812L12.6657 10.1262C13.1593 10.2178 13.643 10.3568 14.11 10.5412C14.4762 10.6887 14.8144 10.8979 15.1101 11.1595C15.4338 11.4515 15.6889 11.8115 15.8571 12.2137C16.0244 12.6376 16.1076 13.0901 16.102 13.5458C16.1069 13.9713 16.0308 14.3938 15.8779 14.7909C15.7175 15.1874 15.4885 15.5527 15.2014 15.8699C14.8911 16.2088 14.5229 16.4899 14.1141 16.6999C13.7044 16.9038 13.2708 17.0558 12.8234 17.1522V17.9117C12.8313 18.1074 12.8031 18.303 12.7404 18.4886C12.6886 18.6268 12.6064 18.7516 12.4997 18.8538C12.3941 18.972 12.2638 19.0655 12.1179 19.1277C11.8172 19.2499 11.4807 19.2499 11.18 19.1277C11.0342 19.0655 10.9038 18.972 10.7982 18.8538C10.6943 18.7494 10.6125 18.6252 10.5575 18.4886C10.4982 18.3023 10.4715 18.1071 10.4786 17.9117V17.1481C10.2711 17.0983 10.0636 17.0402 9.85199 16.9696C9.64033 16.8991 9.40378 16.8078 9.17968 16.7123C9.07391 16.7967 8.95823 16.8677 8.83522 16.924C8.69538 16.9919 8.54246 17.0288 8.38701 17.0319C8.21556 17.0356 8.04502 17.006 7.88486 16.9447C7.73596 16.8838 7.60265 16.7902 7.49475 16.6708C7.37392 16.5345 7.28841 16.3706 7.24574 16.1936C7.19274 15.9805 7.16763 15.7615 7.17104 15.542V14.297C7.16737 14.0761 7.19248 13.8557 7.24574 13.6413C7.2995 13.4233 7.4166 13.2261 7.58228 13.0745C7.74796 12.9229 7.95479 12.8238 8.17672 12.7897C8.39864 12.7555 8.62572 12.7878 8.82931 12.8825C9.03291 12.9771 9.20392 13.13 9.32078 13.3217C9.48678 13.6039 9.49508 13.9816 9.73578 14.2181C10.2837 14.6585 10.9712 14.8882 11.6739 14.8656C12.2811 14.8876 12.878 14.7032 13.3671 14.3426C13.4957 14.2479 13.602 14.1261 13.6783 13.9857C13.7466 13.8603 13.7851 13.7207 13.7907 13.578C13.7963 13.4352 13.7689 13.2931 13.7107 13.1627C13.6525 13.0322 13.565 12.9169 13.4551 12.8257C13.3451 12.7346 13.2156 12.67 13.0766 12.637C12.8065 12.5398 12.5289 12.4649 12.2466 12.4129L10.7816 12.1182C10.3011 12.0304 9.83382 11.8811 9.39133 11.6742C9.01656 11.4951 8.67871 11.2474 8.39531 10.9437C7.88641 10.3584 7.611 9.60616 7.62172 8.83064C7.63244 8.05511 7.92853 7.31073 8.45341 6.73972C8.72911 6.43165 9.05807 6.17579 9.42453 5.98441C9.76191 5.8079 10.1223 5.67938 10.4952 5.6026V5.3951C10.4892 5.1984 10.5158 5.00206 10.5741 4.81409C10.6586 4.5925 10.8084 4.40181 11.0037 4.26727C11.1989 4.13272 11.4305 4.06068 11.6676 4.06068C11.9048 4.06068 12.1363 4.13272 12.3316 4.26727C12.5269 4.40181 12.6767 4.5925 12.7612 4.81409C12.8139 5.003 12.8349 5.19932 12.8234 5.3951V5.6109V5.61505Z" fill="#6171FD"/>
<path fill-rule="evenodd" clip-rule="evenodd" d="M6.54077 26.7886C5.95561 35.2962 7.26288 40.5211 16.5632 40.5211H17.9244V43.1149C17.9244 44.4097 18.2274 44.6338 19.1694 43.7457L24.2159 38.9483C24.826 38.3714 24.7388 37.9937 24.1578 37.4335L19.1777 32.6568C18.3062 31.7728 17.9327 32.0218 17.9327 33.2378V36.2881C9.57031 36.8151 10.8278 31.723 10.8278 26.7886H6.54077ZM44.3686 23.2818C44.9538 14.7741 43.6465 9.54504 34.3462 9.54504H32.985V6.95539C32.985 5.66057 32.6779 5.43647 31.74 6.32458L26.6935 11.1221C26.0834 11.6989 26.1706 12.0766 26.7516 12.6368L31.7358 17.4302C32.6073 18.31 32.9808 18.061 32.9808 16.8492V13.7823C41.3474 13.2552 40.0899 18.3473 40.0899 23.2818H44.3686Z" fill="#1B1C4A"/>
</g>
<defs>
<clipPath id="clip0">
<rect width="50.996" height="50" fill="white"/>
</clipPath>
</defs>
</svg>
