<svg width="53" height="50" viewBox="0 0 53 50" fill="none" xmlns="http://www.w3.org/2000/svg">
<g clip-path="url(#clip0)">
<path fill-rule="evenodd" clip-rule="evenodd" d="M39.8966 16.2713C36.8931 11.221 31.4054 8.13355 25.132 8.13355C15.6351 8.13355 8.23011 15.4412 8.23011 25C8.23011 34.5588 15.6351 42.6018 25.132 42.6018C31.4054 42.6018 36.8931 38.9262 39.8966 33.8758H48.5046C44.9472 43.3009 35.7441 50 25.132 50C11.4141 50 -0.000488281 38.8071 -0.000488281 25C-0.000488281 11.1929 11.4141 0 25.132 0C35.7441 0 44.9472 6.8462 48.5046 16.2713H39.8966V16.2713ZM52.7682 22.0589L44.0958 28.2353H33.2156C31.9484 31.5046 28.7763 33.8236 25.0609 33.8236C20.2307 33.8236 16.3152 29.9061 16.3152 25.0736C16.3152 20.241 20.2307 16.3236 25.0609 16.3236C28.8322 16.3236 32.0457 18.7117 33.2736 22.0589H52.7682Z" fill="#FF0000"/>
</g>
<defs>
<clipPath id="clip0">
<rect width="52.7687" height="50" fill="white"/>
</clipPath>
</defs>
</svg>
