<svg width="82" height="40" viewBox="0 0 82 40" fill="none" xmlns="http://www.w3.org/2000/svg">
<path d="M31.7678 29.7091H25.8097C23.9089 30.9889 22.013 31.7158 20.0132 31.7158C18.4172 31.7177 16.8378 31.3923 15.3725 30.7596C13.9073 30.127 12.5874 29.2006 11.4944 28.0376V33.6311H5.58154C7.43432 35.5992 9.67068 37.1668 12.1527 38.2373C14.6347 39.3079 17.3097 39.8585 20.0127 39.8553C24.4949 39.8553 28.3673 38.1328 31.768 35.5735L31.7678 29.7091Z" fill="#1723A3"/>
<path d="M10.3503 32.49V26.6949H10.4005C9.03336 24.735 8.30201 22.402 8.30562 20.0124C8.30373 18.4576 8.61259 16.9181 9.21405 15.4843C9.81551 14.0506 10.6975 12.7515 11.8081 11.6634H6.24855V5.71631C4.32254 7.56553 2.79074 9.78544 1.7454 12.2424C0.700066 14.6993 0.162825 17.3423 0.166036 20.0124C0.159484 24.5555 1.71864 28.962 4.58094 32.49H10.3503Z" fill="#172192"/>
<path d="M53.5386 4.0696H54.6812V10.0038C56.528 8.87445 58.5339 8.30709 61.0612 8.30709C62.7898 8.30533 64.4972 8.68723 66.0603 9.42525C67.6234 10.1633 69.0032 11.239 70.1002 12.5749H75.8489V6.77972C73.9897 4.6969 71.711 3.03095 69.1624 1.89127C66.6137 0.75159 63.8528 0.163968 61.0609 0.167004C56.2453 0.167004 52.5198 1.82642 49.5156 4.0691L53.5386 4.0696Z" fill="#1529CD"/>
<path d="M7.3924 4.72483V10.52H13.1621C15.1544 9.0778 17.552 8.30307 20.0115 8.30677C23.5946 8.30677 26.0675 9.49504 28.5649 11.7807V6.30275H34.0319C30.6068 3.03497 26.1648 0.167014 20.0115 0.167014C15.3903 0.160145 10.9129 1.77286 7.35742 4.72483H7.3924Z" fill="#181F81"/>
<path opacity="0.995" d="M76.9904 8.17676V13.7173H70.9302C72.1317 15.5965 72.7685 17.781 72.765 20.0114C72.7668 21.682 72.4101 23.3335 71.7189 24.8544C71.0278 26.3753 70.0184 27.7302 68.7588 28.8276V34.5622H74.5519C76.5581 32.7068 78.1582 30.4561 79.2516 27.9518C80.3449 25.4475 80.9078 22.744 80.9047 20.0114C80.9114 15.7475 79.5382 11.5958 76.9904 8.17676V8.17676Z" fill="#172EE3"/>
<path d="M68.7593 35.7052H67.6167V29.7094C65.6821 31.0206 63.3978 31.7197 61.0607 31.7157C57.7275 31.7157 54.7411 29.8245 52.2781 27.5596H46.9531V33.231C50.8192 37.1261 54.926 39.8553 61.0607 39.8553C65.4583 39.862 69.7324 38.4013 73.2062 35.7047L68.7593 35.7052Z" fill="#0F33FF"/>
<path d="M40.5911 13.6282C39.9243 12.8239 39.25 12.017 38.5929 11.2405C37.5904 10.0557 36.486 8.74171 35.2393 7.44531H29.7832V12.883C31.4304 14.5871 33.1604 16.7506 35.2895 19.3554L35.6435 19.7886L40.815 26.1139C42.4356 28.0948 43.0471 28.8403 43.0471 28.8403C43.9929 29.9308 44.9169 30.9839 45.8448 31.9779V26.3678H51.126C49.3707 24.5645 47.9419 22.6868 46.9208 21.4246C46.9208 21.4246 46.4075 20.7785 45.5789 19.7472L40.5911 13.6282Z" fill="#111C6F"/>
<path d="M45.5063 19.7524C45.6067 19.6199 45.7071 19.4888 45.8075 19.3589C48.8152 15.458 51.0887 12.5858 53.5153 10.741V5.15723H48.0646C45.9473 6.9902 44.2129 9.05932 42.6998 10.891C41.8671 11.8988 41.154 12.7822 40.4962 13.6058L35.5255 19.794C35.0348 20.383 34.5046 21.0123 33.9151 21.6995C31.5779 24.4275 29.4276 26.7756 27.3193 28.5112H32.8926V34.6325C35.8336 32.1793 38.41 29.1425 40.7197 26.148L45.5063 19.7524Z" fill="#1727B8"/>
</svg>
