<svg width="50" height="50" viewBox="0 0 50 50" fill="none" xmlns="http://www.w3.org/2000/svg">
<path d="M50 0H0V50H50V0Z" fill="#512BD4"/>
<path d="M8.9114 31.9443C8.55787 31.9443 8.25737 31.8265 8.00989 31.5909C7.76241 31.3492 7.63867 31.0623 7.63867 30.73C7.63867 30.3916 7.76241 30.1017 8.00989 29.8601C8.25737 29.6184 8.55787 29.4976 8.9114 29.4976C9.27083 29.4976 9.57429 29.6184 9.82176 29.8601C10.0751 30.1017 10.2018 30.3916 10.2018 30.73C10.2018 31.0623 10.0751 31.3492 9.82176 31.5909C9.57429 31.8265 9.27083 31.9443 8.9114 31.9443Z" fill="white"/>
<path d="M23.0445 31.7451H20.7464L14.6922 22.1936C14.539 21.952 14.4122 21.7012 14.3121 21.4414H14.259C14.3062 21.7194 14.3298 22.3145 14.3298 23.2266V31.7451H12.2969V18.75H14.7451L20.5962 28.0749C20.8437 28.4616 21.0028 28.7274 21.0735 28.8724H21.1088C21.0499 28.5281 21.0204 27.9451 21.0204 27.1234V18.75H23.0445V31.7451Z" fill="white"/>
<path d="M32.9445 31.7451H25.8296V18.75H32.6617V20.5806H27.9332V24.2598H32.2906V26.0812H27.9332V29.9236H32.9445V31.7451Z" fill="white"/>
<path d="M43.0559 20.5806H39.4144V31.7451H37.3108V20.5806H33.6782V18.75H43.0559V20.5806Z" fill="white"/>
</svg>
