<svg width="94" height="116" viewBox="0 0 94 116" fill="none" xmlns="http://www.w3.org/2000/svg">
<g opacity="0.1">
<circle cx="3" cy="113" r="3" fill="white"/>
<circle cx="25" cy="113" r="3" fill="white"/>
<circle cx="47" cy="113" r="3" fill="white"/>
<circle cx="69" cy="113" r="3" fill="white"/>
<circle cx="91" cy="113" r="3" fill="white"/>
<circle cx="3" cy="91" r="3" fill="white"/>
<circle cx="25" cy="91" r="3" fill="white"/>
<circle cx="47" cy="91" r="3" fill="white"/>
<circle cx="69" cy="91" r="3" fill="white"/>
<circle cx="91" cy="91" r="3" fill="white"/>
<circle cx="3" cy="69" r="3" fill="white"/>
<circle cx="25" cy="69" r="3" fill="white"/>
<circle cx="47" cy="69" r="3" fill="white"/>
<circle cx="69" cy="69" r="3" fill="white"/>
<circle cx="91" cy="69" r="3" fill="white"/>
<circle cx="3" cy="47" r="3" fill="white"/>
<circle cx="25" cy="47" r="3" fill="white"/>
<circle cx="47" cy="47" r="3" fill="white"/>
<circle cx="69" cy="47" r="3" fill="white"/>
<circle cx="91" cy="47" r="3" fill="white"/>
<circle cx="3" cy="25" r="3" fill="white"/>
<circle cx="25" cy="25" r="3" fill="white"/>
<circle cx="47" cy="25" r="3" fill="white"/>
<circle cx="69" cy="25" r="3" fill="white"/>
<circle cx="91" cy="25" r="3" fill="white"/>
<circle cx="3" cy="3" r="3" fill="white"/>
<circle cx="25" cy="3" r="3" fill="white"/>
<circle cx="47" cy="3" r="3" fill="white"/>
<circle cx="69" cy="3" r="3" fill="white"/>
<circle cx="91" cy="3" r="3" fill="white"/>
</g>
</svg>
