<svg width="64" height="64" viewBox="0 0 64 64" fill="none" xmlns="http://www.w3.org/2000/svg">
<path d="M12.2213 46.1893C9.47467 43.272 8 40 8 34.696C8 25.3627 14.552 16.9973 24.08 12.8613L26.4613 16.536C17.568 21.3467 15.8293 27.5893 15.136 31.5253C16.568 30.784 18.4427 30.5253 20.28 30.696C25.0907 31.1413 28.8827 35.0907 28.8827 40C28.8827 42.4753 27.8993 44.8493 26.149 46.5997C24.3987 48.35 22.0247 49.3333 19.5493 49.3333C16.688 49.3333 13.952 48.0267 12.2213 46.1893ZM38.888 46.1893C36.1413 43.272 34.6667 40 34.6667 34.696C34.6667 25.3627 41.2187 16.9973 50.7467 12.8613L53.128 16.536C44.2347 21.3467 42.496 27.5893 41.8027 31.5253C43.2347 30.784 45.1093 30.5253 46.9467 30.696C51.7573 31.1413 55.5493 35.0907 55.5493 40C55.5493 42.4753 54.566 44.8493 52.8157 46.5997C51.0653 48.35 48.6914 49.3333 46.216 49.3333C43.3547 49.3333 40.6187 48.0267 38.888 46.1893Z" fill="#6171FD"/>
</svg>
