<svg width="44" height="50" viewBox="0 0 44 50" fill="none" xmlns="http://www.w3.org/2000/svg">
<g clip-path="url(#clip0)">
<path d="M14.3715 8.06239C5.64573 11.7686 0.154297 19.0366 0.154297 28.3752C0.154297 40.3102 9.82955 49.9856 21.765 49.9856C33.6999 49.9856 43.3753 40.3102 43.3753 28.3752C43.3753 14.0255 30.0425 8.32104 30.0425 8.32104C30.0425 8.32104 27.1303 7.1117 25.5021 6.02611C25.5021 6.02611 23.4448 4.76899 19.8594 0.140625C19.8594 0.140625 19.9406 5.39924 14.3715 8.06256" fill="#136DA9"/>
<path d="M19.6031 45.8027C18.844 45.2751 19.0245 43.5956 21.0814 44.7955C21.0814 44.7955 25.4609 48.0121 32.3951 44.1529C32.9342 43.8529 33.595 44.9113 31.8809 45.8818C31.8809 45.8818 24.8742 49.4667 19.6031 45.8027Z" fill="#F0F0F0"/>
<path d="M28.5378 40.4676C31.0877 40.7662 30.2109 41.9923 30.8951 42.1814C32.2876 42.5673 31.6877 41.0458 31.6877 41.0458C30.659 38.989 28.8807 39.1176 28.8807 39.1176C26.0952 38.6889 24.0167 41.346 24.0167 41.346C23.5024 42.4814 24.222 42.5398 24.488 42.4174C25.8379 41.7958 26.6591 40.2471 28.5378 40.4676Z" fill="#F0F0F0"/>
<path d="M2.98235 39.2422C2.98235 39.2422 10.7309 45.6529 29.5871 31.3709C29.5871 31.3709 39.058 25.4253 38.7727 15.2312C38.7727 15.2312 35.7079 10.8266 30.5364 8.55511C29.8006 8.2318 23.3386 4.70557 19.8487 0.283691C19.8487 0.283691 19.2162 13.1117 2.786 18.1762C2.786 18.1762 -1.3541 24.2827 0.902843 34.2073C0.902843 34.2073 2.34754 38.2312 2.98235 39.2422Z" fill="#008ECE"/>
<path d="M15.2747 41.6247C15.2747 41.6247 8.84644 41.7959 9.618 34.9391C9.618 34.9391 10.9607 27.2252 19.9887 28.9395C19.9887 28.9395 21.9603 29.368 25.6457 32.1964C25.6457 32.1964 28.0778 34.0713 29.4168 34.036C29.4168 34.036 30.4561 34.1357 32.6168 32.7679C32.6168 32.7679 37.0235 29.3675 38.5641 29.4683C38.6024 29.4708 41.6733 29.1325 41.6733 34.0821C41.6733 34.0821 41.7304 39.5391 37.6166 41.3674C37.6166 41.3674 36.5308 41.7388 35.3593 40.5104C35.3593 40.5104 31.9881 36.682 30.331 36.0534C30.331 36.0534 29.374 35.6784 28.1026 36.1392C28.1026 36.1392 27.2741 36.2249 23.8745 38.4819C23.8745 38.4819 18.1602 42.053 15.2747 41.6247Z" fill="#F0F0F0"/>
<path d="M18.6734 17.0257C22.8353 11.0646 19.8488 0.112305 19.8488 0.112305C19.4816 6.05469 14.468 8.01567 14.468 8.01567C5.49116 11.8902 2.78613 18.0046 2.78613 18.0046C4.70981 20.7326 9.81664 29.7106 18.6734 17.0257Z" fill="#008ECE"/>
<path d="M19.8486 0.112305C19.8486 0.112305 20.3874 5.1121 17.6732 6.74048C17.6732 6.74048 13.3206 8.76663 11.9919 9.43082C11.9919 9.43082 6.40234 12.8046 4.55988 15.9756C4.55988 15.9756 0.616973 21.2516 6.05978 20.0043C6.05978 20.0043 15.9022 17.2256 19.902 8.84041C19.902 8.84041 20.1375 8.13335 19.3874 7.40484C19.3874 7.40484 22.3875 5.14063 19.8486 0.112305Z" fill="#A0D8F1"/>
<path d="M19.8492 0.112305C19.8492 0.112305 20.0737 3.52642 17.2394 6.35521C17.2394 6.35521 16.3883 7.55476 11.9924 9.43082C11.9924 9.43082 6.96021 12.0545 4.70411 15.6933C4.70411 15.6933 1.36056 19.7265 5.94536 18.6452C5.94536 18.6452 15.235 15.2216 18.639 8.93496C18.639 8.93496 19.0994 8.27432 18.3986 7.59359C18.3986 7.59359 21.7313 4.99071 19.8492 0.112305Z" fill="#F0F0F0"/>
</g>
<defs>
<clipPath id="clip0">
<rect width="43.3898" height="50" fill="white"/>
</clipPath>
</defs>
</svg>
