<svg width="50" height="50" viewBox="0 0 50 50" fill="none" xmlns="http://www.w3.org/2000/svg">
<g clip-path="url(#clip0)">
<path d="M36.8164 11.8164H38.2812V17.6758H41.2109V8.88672H36.8164V11.8164Z" fill="#3463DB"/>
<path d="M39.7461 3.02734C34.0921 3.02734 29.4922 7.62725 29.4922 13.2812C29.4922 13.7786 29.5285 14.2675 29.5973 14.7461H9.82178L8.6499 3.02734H0V5.95703H5.99854L8.78906 33.862V41.1123H9.04102C8.87842 41.5708 8.78906 42.0646 8.78906 42.5781C8.78906 45.0013 10.7604 46.9727 13.1836 46.9727C15.6067 46.9727 17.5781 45.0013 17.5781 42.5781C17.5781 42.0646 17.4888 41.5718 17.3262 41.1123H29.7441C29.5815 41.5718 29.4922 42.0646 29.4922 42.5781C29.4922 45.0013 31.4636 46.9727 33.8867 46.9727C36.3099 46.9727 38.2812 45.0013 38.2812 42.5781C38.2812 42.0646 38.1919 41.5718 38.0293 41.1133H38.2812V38.1836H11.7188V35.2539H37.9601L40.9063 23.4691C46.016 22.891 50 18.543 50 13.2812C50 7.62725 45.4001 3.02734 39.7461 3.02734ZM14.6484 42.5781C14.6484 43.3858 13.9913 44.043 13.1836 44.043C12.3759 44.043 11.7188 43.3858 11.7188 42.5781C11.7188 41.7704 12.3759 41.1133 13.1836 41.1133C13.9913 41.1133 14.6484 41.7704 14.6484 42.5781ZM35.3516 42.5781C35.3516 43.3858 34.6944 44.043 33.8867 44.043C33.079 44.043 32.4219 43.3858 32.4219 42.5781C32.4219 41.7704 33.079 41.1133 33.8867 41.1133C34.6944 41.1133 35.3516 41.7704 35.3516 42.5781ZM11.5796 32.3242L10.1147 17.6758H30.4829C31.8787 20.6061 34.6244 22.7742 37.9111 23.3704L35.6727 32.3242H11.5796ZM39.7461 20.6055C35.7075 20.6055 32.4219 17.3198 32.4219 13.2812C32.4219 9.24268 35.7075 5.95703 39.7461 5.95703C43.7847 5.95703 47.0703 9.24268 47.0703 13.2812C47.0703 17.3198 43.7847 20.6055 39.7461 20.6055Z" fill="#3463DB"/>
</g>
<defs>
<clipPath id="clip0">
<rect width="50" height="50" fill="white"/>
</clipPath>
</defs>
</svg>
