<svg width="41" height="50" viewBox="0 0 41 50" fill="none" xmlns="http://www.w3.org/2000/svg">
<g clip-path="url(#clip0)">
<path d="M25.0531 0.0170455L40.5209 0L14.5701 25.9375L7.80689 32.6629L0.111816 24.9583L25.0531 0.0170455ZM24.9092 23.1761C25.1099 22.911 25.4792 23.0417 25.7595 23.0076L40.5077 23.0114L27.0664 36.4394L19.3315 28.7519L24.9092 23.1761Z" fill="#44D1FD"/>
<path d="M11.6211 36.4527L19.3313 28.752L27.0662 36.4395L27.0984 36.4735L19.3332 44.1667L11.6211 36.4527Z" fill="#1FBCFD"/>
<path d="M19.3335 44.1668L27.0986 36.4736L40.5134 49.9017C35.4604 49.913 30.4093 49.8979 25.3581 49.9092C25.0702 49.9736 24.8922 49.7104 24.7085 49.5475L19.3335 44.1668Z" fill="#08589C"/>
</g>
<defs>
<clipPath id="clip0">
<rect width="40.5303" height="50" fill="white"/>
</clipPath>
</defs>
</svg>
