<svg width="108" height="40" viewBox="0 0 108 40" fill="none" xmlns="http://www.w3.org/2000/svg">
<g clip-path="url(#clip0)">
<path d="M8.08312 12.099C7.87451 12.099 7.82236 11.9947 7.92666 11.8383L9.02184 10.4302C9.12614 10.2737 9.3869 10.1694 9.5955 10.1694H28.2135C28.4221 10.1694 28.4743 10.3259 28.3699 10.4823L27.4834 11.8383C27.3791 11.9947 27.1183 12.1512 26.9619 12.1512L8.08312 12.099Z" fill="#00ACD7"/>
<path d="M0.208605 16.8969C0 16.8969 -0.0521512 16.7926 0.0521512 16.6361L1.14733 15.228C1.25163 15.0716 1.51239 14.9673 1.72099 14.9673H25.502C25.7106 14.9673 25.8149 15.1237 25.7627 15.2802L25.3455 16.5318C25.2934 16.7404 25.0847 16.8447 24.8761 16.8447L0.208605 16.8969Z" fill="#00ACD7"/>
<path d="M12.8292 21.6947C12.6206 21.6947 12.5685 21.5383 12.6728 21.3818L13.4029 20.078C13.5072 19.9216 13.7158 19.7651 13.9244 19.7651H24.3546C24.5632 19.7651 24.6675 19.9216 24.6675 20.1302L24.5632 21.3818C24.5632 21.5904 24.3546 21.7469 24.1982 21.7469L12.8292 21.6947Z" fill="#00ACD7"/>
<path d="M66.9622 11.1602C63.6766 11.9946 61.4341 12.6204 58.2007 13.4549C57.4185 13.6635 57.3663 13.7156 56.6884 12.9333C55.9061 12.0468 55.3324 11.4731 54.2373 10.9516C50.9517 9.33491 47.7705 9.80427 44.7979 11.7339C41.2516 14.0285 39.4263 17.4183 39.4785 21.6426C39.5306 25.8147 42.3989 29.2567 46.5189 29.8303C50.0652 30.2997 53.0378 29.0481 55.3846 26.3884C55.8539 25.8147 56.2712 25.1889 56.7927 24.4588C54.9152 24.4588 52.5684 24.4588 46.7275 24.4588C45.6323 24.4588 45.3715 23.7808 45.7366 22.8942C46.4146 21.2775 47.6662 18.5657 48.3963 17.2097C48.5528 16.8968 48.9178 16.3753 49.7001 16.3753C52.3598 16.3753 62.1642 16.3753 68.6831 16.3753C68.5788 17.7834 68.5788 19.1915 68.3702 20.5996C67.7966 24.3545 66.3885 27.7964 64.0938 30.8212C60.3389 35.7756 55.4367 38.8525 49.2307 39.6869C44.1199 40.3649 39.3742 39.374 35.2021 36.2449C31.3429 33.3245 29.1525 29.4653 28.5788 24.6674C27.9009 18.9829 29.5697 13.8721 33.0117 9.38706C36.7144 4.53699 41.6167 1.46007 47.614 0.364894C52.5163 -0.521677 57.2099 0.0519865 61.4341 2.9203C64.1981 4.7456 66.1799 7.24886 67.4837 10.2736C67.7966 10.743 67.588 11.0037 66.9622 11.1602Z" fill="#00ACD7"/>
<path d="M84.2244 39.9998C79.4786 39.8955 75.1501 38.5396 71.4995 35.4105C68.4225 32.7508 66.4929 29.361 65.8671 25.3453C64.9284 19.4522 66.5451 14.2371 70.0914 9.59566C73.8984 4.58914 78.4877 1.98158 84.6937 0.886405C90.0132 -0.0523176 95.0197 0.469195 99.5568 3.54612C103.677 6.36229 106.232 10.1693 106.91 15.1758C107.797 22.2163 105.763 27.9529 100.913 32.8551C97.4708 36.3493 93.2465 38.5396 88.3965 39.5305C86.9884 39.7912 85.5803 39.8434 84.2244 39.9998ZM96.6364 18.9307C96.5842 18.2528 96.5842 17.7313 96.4799 17.2097C95.5412 12.0468 90.7954 9.1263 85.8411 10.2736C80.991 11.3688 77.8619 14.4457 76.7146 19.3479C75.7759 23.4157 77.7576 27.5357 81.5125 29.2045C84.3808 30.4562 87.2491 30.2997 90.0132 28.8916C94.1331 26.7534 96.3756 23.4157 96.6364 18.9307Z" fill="#00ACD7"/>
</g>
<defs>
<clipPath id="clip0">
<rect width="107.119" height="40" fill="white"/>
</clipPath>
</defs>
</svg>
