<svg width="55" height="50" viewBox="0 0 55 50" fill="none" xmlns="http://www.w3.org/2000/svg">
<g clip-path="url(#clip0)">
<path d="M15.4667 48.5169C15.382 48.5169 15.2972 48.4745 15.2548 48.3898L0.0853417 26.9067C0.0429688 26.822 0.0429688 26.7372 0.0429688 26.6525L11.0599 2.71181C11.1023 2.62706 11.187 2.58469 11.2718 2.58469L37.4582 0.169434C37.543 0.169434 37.6277 0.211807 37.6701 0.296552L52.8396 21.7796C52.882 21.8643 52.882 21.9491 52.882 22.0338L41.865 45.9745C41.8226 46.0593 41.7379 46.1016 41.6531 46.1016L15.4667 48.5169C15.4667 48.5169 15.5091 48.5169 15.4667 48.5169ZM0.593816 26.7372L15.5938 48.0084L41.4836 45.5932L52.3735 21.9491L37.3311 0.677908L11.4413 3.09316L0.593816 26.7372Z" fill="#373A36"/>
<path d="M15.3814 48.4745L11.1865 26.6101V2.66943L31.6526 8.68638L52.8814 21.9067L37.0764 35.8898L15.3814 48.4745ZM11.3984 3.00842V26.5677L15.5509 48.0932L36.9492 35.7203L52.4577 21.9491L31.5255 8.94062L11.3984 3.00842Z" fill="#373A36"/>
<path d="M31.9492 9.70365C32.3705 9.70365 32.7119 9.36217 32.7119 8.94094C32.7119 8.5197 32.3705 8.17822 31.9492 8.17822C31.528 8.17822 31.1865 8.5197 31.1865 8.94094C31.1865 9.36217 31.528 9.70365 31.9492 9.70365Z" fill="#373A36"/>
<path d="M31.9487 10.5086C31.1012 10.5086 30.3809 9.7883 30.3809 8.94084C30.3809 8.09339 31.1012 7.37305 31.9487 7.37305C32.7961 7.37305 33.5165 8.09339 33.5165 8.94084C33.5588 9.83067 32.8385 10.5086 31.9487 10.5086ZM31.9487 8.89847L31.9063 8.94084C31.9063 8.98322 31.9487 8.98322 31.9487 8.98322V8.89847Z" fill="#373A36"/>
<path d="M37.0762 36.5679C37.4974 36.5679 37.8389 36.2264 37.8389 35.8052C37.8389 35.384 37.4974 35.0425 37.0762 35.0425C36.655 35.0425 36.3135 35.384 36.3135 35.8052C36.3135 36.2264 36.655 36.5679 37.0762 36.5679Z" fill="#373A36"/>
<path d="M37.0766 37.3729C36.2291 37.3729 35.5088 36.6526 35.5088 35.8051C35.5088 34.9576 36.2291 34.2373 37.0766 34.2373C37.924 34.2373 38.6444 34.9576 38.6444 35.8051C38.6444 36.6526 37.924 37.3729 37.0766 37.3729ZM37.0766 35.7627C37.0342 35.8475 37.0342 35.8475 37.0766 35.8475V35.7627Z" fill="#373A36"/>
<path d="M15.6778 49.0254C16.099 49.0254 16.4405 48.6839 16.4405 48.2627C16.4405 47.8415 16.099 47.5 15.6778 47.5C15.2565 47.5 14.915 47.8415 14.915 48.2627C14.915 48.6839 15.2565 49.0254 15.6778 49.0254Z" fill="#373A36"/>
<path d="M15.6781 49.8729C14.8307 49.8729 14.1104 49.1526 14.1104 48.3051C14.1104 47.4576 14.8307 46.7373 15.6781 46.7373C16.5256 46.7373 17.2459 47.4576 17.2459 48.3051C17.2459 49.1526 16.5256 49.8729 15.6781 49.8729ZM15.6781 48.2204C15.6358 48.3051 15.6358 48.3051 15.6781 48.3051V48.2204Z" fill="#373A36"/>
<path d="M11.2715 27.5425C11.6927 27.5425 12.0342 27.201 12.0342 26.7798C12.0342 26.3586 11.6927 26.0171 11.2715 26.0171C10.8503 26.0171 10.5088 26.3586 10.5088 26.7798C10.5088 27.201 10.8503 27.5425 11.2715 27.5425Z" fill="#373A36"/>
<path d="M11.2709 28.39C10.4235 28.39 9.70312 27.6696 9.70312 26.8222C9.70312 25.9747 10.4235 25.2544 11.2709 25.2544C12.1184 25.2544 12.8387 25.9747 12.8387 26.8222C12.8387 27.712 12.1608 28.39 11.2709 28.39ZM11.2709 26.7798L11.2285 26.8222C11.2285 26.8646 11.2709 26.8646 11.2709 26.8646V26.7798Z" fill="#373A36"/>
<path d="M52.6699 22.7119C53.0912 22.7119 53.4327 22.3705 53.4327 21.9492C53.4327 21.528 53.0912 21.1865 52.6699 21.1865C52.2487 21.1865 51.9072 21.528 51.9072 21.9492C51.9072 22.3705 52.2487 22.7119 52.6699 22.7119Z" fill="#373A36"/>
<path d="M52.6694 23.5169C51.8219 23.5169 51.1016 22.7966 51.1016 21.9491C51.1016 21.1017 51.8219 20.3813 52.6694 20.3813C53.5168 20.3813 54.2372 21.1017 54.2372 21.9491C54.2372 22.7966 53.5168 23.5169 52.6694 23.5169ZM52.6694 21.8644C52.627 21.9491 52.627 21.9491 52.6694 21.9491V21.8644Z" fill="#373A36"/>
<path d="M11.2715 3.6016C11.6927 3.6016 12.0342 3.26012 12.0342 2.83888C12.0342 2.41765 11.6927 2.07617 11.2715 2.07617C10.8503 2.07617 10.5088 2.41765 10.5088 2.83888C10.5088 3.26012 10.8503 3.6016 11.2715 3.6016Z" fill="#373A36"/>
<path d="M11.2709 4.40659C10.4235 4.40659 9.70312 3.68625 9.70312 2.83879C9.70312 1.99134 10.4235 1.271 11.2709 1.271C12.1184 1.271 12.8387 1.99134 12.8387 2.83879C12.8387 3.72862 12.1608 4.40659 11.2709 4.40659ZM11.2709 2.79642L11.2285 2.83879C11.2285 2.88117 11.2709 2.88117 11.2709 2.88117V2.79642Z" fill="#373A36"/>
<path d="M41.6531 46.1018C41.6108 46.1018 41.6108 46.1018 41.5684 46.1018L21.6108 39.0679L0.170087 26.9916C0.0853417 26.9492 0.0429688 26.8645 0.0429688 26.7797C0.0429688 26.695 0.0429688 26.6103 0.127715 26.5679L16.2718 11.8221L37.3311 0.211955C37.4158 0.169583 37.5006 0.169583 37.543 0.211955C37.6277 0.254328 37.6701 0.296701 37.6701 0.381447L42.4158 21.1442L41.865 45.8475C41.865 45.9323 41.8226 46.017 41.7379 46.0594C41.7379 46.1018 41.6955 46.1018 41.6531 46.1018ZM0.720935 26.7374L21.8226 38.6018L41.3989 45.5086L41.9497 21.2289L37.2887 0.847549L16.526 12.2459L0.720935 26.7374Z" fill="#373A36"/>
<path d="M37.1615 35.8897L37.0344 35.8474L11.1445 26.8643L11.2293 26.7796L31.992 8.81348L37.1615 35.8897ZM11.3988 26.7796L36.9496 35.6779L31.9072 9.06771L11.3988 26.7796Z" fill="#373A36"/>
<path d="M21.5253 39.2798L16.1016 11.6104L42.7117 21.1443L21.5253 39.2798ZM16.7372 12.3307L21.8219 38.2629L41.6948 21.2714L16.7372 12.3307Z" fill="#373A36"/>
<path d="M11.5234 2.70798L11.0801 2.95703L16.2064 12.0814L16.6497 11.8323L11.5234 2.70798Z" fill="#373A36"/>
<path d="M15.8895 48.3898L15.4658 48.1356L21.4828 38.644L21.9065 38.9407L15.8895 48.3898Z" fill="#373A36"/>
<path d="M42.248 20.9314L42.2109 21.4385L52.6488 22.2011L52.6858 21.694L42.248 20.9314Z" fill="#373A36"/>
</g>
<defs>
<clipPath id="clip0">
<rect width="54.2373" height="50" fill="white"/>
</clipPath>
</defs>
</svg>
