<svg width="51" height="50" viewBox="0 0 51 50" fill="none" xmlns="http://www.w3.org/2000/svg">
<g clip-path="url(#clip0)">
<path d="M25.1686 13.8511C22.9302 13.8511 20.7421 14.5148 18.8809 15.7584C17.0198 17.002 15.5692 18.7696 14.7126 20.8376C13.856 22.9056 13.6319 25.1812 14.0685 27.3766C14.5052 29.572 15.5831 31.5886 17.1659 33.1714C18.7487 34.7542 20.7653 35.8321 22.9607 36.2687C25.1561 36.7054 27.4317 36.4813 29.4997 35.6247C31.5677 34.7681 33.3353 33.3175 34.5789 31.4563C35.8224 29.5952 36.4862 27.407 36.4862 25.1686C36.4826 22.1681 35.2891 19.2915 33.1674 17.1699C31.0457 15.0482 28.1692 13.8547 25.1686 13.8511Z" fill="#478AFF"/>
<path d="M41.4186 14.8548C44.2658 14.8548 46.574 12.5466 46.574 9.69935C46.574 6.8521 44.2658 4.54395 41.4186 4.54395C38.5713 4.54395 36.2632 6.8521 36.2632 9.69935C36.2632 12.5466 38.5713 14.8548 41.4186 14.8548Z" fill="#478AFF"/>
<path d="M47.7667 14.8817L47.5505 14.4088L47.2127 14.8006C46.3675 15.7597 45.2987 16.4954 44.1012 16.9425L43.7633 17.0642L43.8985 17.402C45.7192 21.7805 45.9496 26.6583 44.5498 31.1889C43.1501 35.7196 40.2084 39.6173 36.2353 42.2058C32.2621 44.7943 27.5082 45.9102 22.7982 45.36C18.0883 44.8098 13.7196 42.6281 10.45 39.1935C7.18051 35.7589 5.21649 31.2881 4.89873 26.5568C4.58097 21.8255 5.92953 17.1322 8.71043 13.2913C11.4913 9.45031 15.5291 6.70405 20.1232 5.52897C24.7172 4.35388 29.5777 4.82411 33.8613 6.85808L34.1789 7.01011L34.3174 6.67227C34.8223 5.49798 35.609 4.46638 36.6079 3.66889L37.0133 3.33105L36.5505 3.09118C33.0343 1.26369 29.1281 0.314369 25.1654 0.324296C19.8002 0.325066 14.5795 2.0633 10.2847 5.27886C5.9899 8.49442 2.85192 13.0144 1.3404 18.1622C-0.171113 23.3101 0.0251262 28.809 1.89975 33.8361C3.77438 38.8631 7.22657 43.1478 11.7397 46.0491C16.2528 48.9503 21.5841 50.312 26.9356 49.9303C32.2872 49.5486 37.3713 47.4441 41.427 43.9318C45.4827 40.4194 48.2918 35.6881 49.4341 30.4459C50.5763 25.2037 49.9901 19.7326 47.7633 14.8513L47.7667 14.8817Z" fill="#478AFF"/>
</g>
<defs>
<clipPath id="clip0">
<rect width="50.3378" height="50" fill="white"/>
</clipPath>
</defs>
</svg>
