<svg width="50" height="50" viewBox="0 0 50 50" fill="none" xmlns="http://www.w3.org/2000/svg">
<g clip-path="url(#clip0)">
<path d="M38.7005 28.027C37.3251 21.1051 43.8952 17.0455 43.8952 17.0455C43.8952 17.0455 41.3354 13.342 37.0334 12.3893C32.7334 11.4345 30.5814 12.6274 28.4335 13.5222C26.2835 14.4191 25.2107 14.4191 25.2107 14.4191C22.1081 14.4191 19.8401 11.1341 13.9288 12.6296C9.85631 13.6574 5.56919 18.3586 4.79461 23.9696C4.02003 29.5826 5.69154 36.7449 8.91432 42.2958C12.1371 47.851 15.42 49.9387 17.7502 49.9987C20.0804 50.0566 22.4063 48.3294 25.2107 47.9088C28.0173 47.4926 29.7445 48.9259 32.4974 49.7005C35.2395 50.473 36.2008 49.7563 39.3592 47.0699C42.5262 44.3835 45.3929 36.6784 45.3929 36.6784C45.3929 36.6784 40.0759 34.9532 38.7005 28.027Z" fill="black"/>
<path d="M32.611 7.91106C35.6578 4.80636 34.6258 0 34.6258 0C34.6258 0 30.3473 0.751009 27.4807 3.73346C24.6162 6.7181 25.0904 11.4321 25.0904 11.4321C25.0904 11.4321 29.5641 11.0138 32.611 7.91106Z" fill="black"/>
</g>
<defs>
<clipPath id="clip0">
<rect width="50" height="50" fill="white"/>
</clipPath>
</defs>
</svg>
