<svg width="60" height="50" viewBox="0 0 60 50" fill="none" xmlns="http://www.w3.org/2000/svg">
<g clip-path="url(#clip0)">
<path d="M7.39286 7.979C6.75886 7.979 6.15081 8.23091 5.70251 8.67921C5.25421 9.12752 5.00237 9.73549 5.00237 10.3695V39.9377C4.98799 40.2602 5.03909 40.5823 5.15262 40.8846C5.26615 41.1869 5.43975 41.4631 5.66292 41.6964C5.8861 41.9298 6.15422 42.1154 6.45114 42.2423C6.74805 42.3692 7.06758 42.4346 7.39047 42.4346C7.71336 42.4346 8.03289 42.3692 8.3298 42.2423C8.62671 42.1154 8.89484 41.9298 9.11802 41.6964C9.34119 41.4631 9.51479 41.1869 9.62832 40.8846C9.74185 40.5823 9.79294 40.2602 9.77856 39.9377V10.3672C9.77794 9.73441 9.52651 9.12767 9.0793 8.68001C8.63208 8.23235 8.02562 7.98026 7.39286 7.979V7.979Z" fill="#015DE8"/>
<path d="M57.5126 24.6365C57.8352 24.6509 58.1574 24.5998 58.4596 24.4863C58.7619 24.3728 59.038 24.1992 59.2714 23.976C59.5047 23.7528 59.6905 23.4847 59.8174 23.1878C59.9442 22.8908 60.0097 22.5713 60.0097 22.2484C60.0097 21.9255 59.9442 21.606 59.8174 21.3091C59.6905 21.0122 59.5047 20.7441 59.2714 20.5209C59.038 20.2977 58.7619 20.1241 58.4596 20.0106C58.1574 19.8971 57.8352 19.8459 57.5126 19.8603H51.6005V11.2718C51.5731 10.6569 51.3095 10.0762 50.8646 9.65073C50.4197 9.22526 49.8279 8.98779 49.2123 8.98779C48.5967 8.98779 48.005 9.22526 47.5601 9.65073C47.1152 10.0762 46.8516 10.6569 46.8242 11.2718V38.9309C46.884 39.6262 47.1825 40.2794 47.669 40.7797C48.1554 41.28 48.8 41.5967 49.4933 41.6759H56.768C57.0906 41.6903 57.4127 41.6392 57.715 41.5257C58.0173 41.4121 58.2934 41.2385 58.5267 41.0154C58.7601 40.7922 58.9458 40.5241 59.0726 40.2271C59.1995 39.9302 59.2649 39.6107 59.2649 39.2878C59.2649 38.9649 59.1995 38.6454 59.0726 38.3485C58.9458 38.0516 58.7601 37.7834 58.5267 37.5603C58.2934 37.3371 58.0173 37.1635 57.715 37.05C57.4127 36.9364 57.0906 36.8853 56.768 36.8996H51.5993V24.6365H57.5126Z" fill="#015DE8"/>
<path d="M28.9998 10.6187C26.1553 10.6187 23.3747 11.4621 21.0095 13.0424C18.6444 14.6228 16.801 16.869 15.7125 19.497C14.6239 22.1249 14.3391 25.0167 14.894 27.8065C15.449 30.5964 16.8187 33.159 18.8301 35.1704C20.8415 37.1817 23.4041 38.5515 26.194 39.1065C28.9839 39.6614 31.8756 39.3766 34.5036 38.2881C37.1316 37.1995 39.3777 35.3561 40.958 32.991C42.5384 30.6259 43.3819 27.8452 43.3819 25.0007C43.3819 23.112 43.0099 21.2419 42.2871 19.497C41.5643 17.752 40.505 16.1666 39.1695 14.8311C37.834 13.4956 36.2485 12.4361 34.5036 11.7134C32.7587 10.9906 30.8885 10.6187 28.9998 10.6187ZM28.9998 34.6066C27.1002 34.6066 25.2432 34.0433 23.6638 32.9879C22.0843 31.9325 20.8532 30.4325 20.1262 28.6775C19.3993 26.9225 19.2091 24.9913 19.5797 23.1281C19.9503 21.265 20.865 19.5536 22.2083 18.2104C23.5515 16.8671 25.2629 15.9524 27.126 15.5818C28.9891 15.2112 30.9204 15.4014 32.6754 16.1283C34.4304 16.8553 35.9304 18.0864 36.9858 19.6659C38.0411 21.2454 38.6045 23.1022 38.6045 25.0019C38.6045 27.5492 37.5926 29.9922 35.7913 31.7934C33.9901 33.5947 31.5471 34.6066 28.9998 34.6066V34.6066Z" fill="#015DE8"/>
<path d="M28.9975 20.2827C28.0643 20.2827 27.1521 20.5594 26.3762 21.0778C25.6003 21.5962 24.9956 22.3332 24.6385 23.1953C24.2814 24.0574 24.1879 25.0061 24.37 25.9213C24.552 26.8365 25.0014 27.6772 25.6612 28.337C26.3211 28.9969 27.1617 29.4463 28.077 29.6283C28.9922 29.8104 29.9409 29.7169 30.803 29.3598C31.6651 29.0027 32.402 28.398 32.9205 27.6221C33.4389 26.8462 33.7156 25.934 33.7156 25.0008C33.7156 23.7495 33.2185 22.5494 32.3337 21.6646C31.4489 20.7798 30.2488 20.2827 28.9975 20.2827V20.2827ZM28.9405 25.0008C28.9405 24.9851 28.9468 24.97 28.9579 24.9589C28.969 24.9478 28.9841 24.9415 28.9998 24.9415C29.0155 24.9415 29.0307 24.9478 29.0418 24.9589C29.0529 24.97 29.0592 24.9851 29.0592 25.0008C29.0592 25.0648 28.9405 25.0648 28.9405 25.0008Z" fill="#015DE8"/>
<path d="M41.6923 40.7487C38.1071 43.6376 33.6437 45.2171 29.0395 45.2261C24.4353 45.2352 19.9657 43.6732 16.3692 40.7985C16.1269 40.583 15.8432 40.419 15.5355 40.3166C15.2278 40.2142 14.9024 40.1755 14.5793 40.2028C14.2561 40.2302 13.9419 40.3229 13.6557 40.4755C13.3696 40.6282 13.1174 40.8374 12.9147 41.0906C12.712 41.3437 12.5629 41.6355 12.4765 41.948C12.3901 42.2606 12.3683 42.5876 12.4122 42.9089C12.4562 43.2302 12.565 43.5392 12.7322 43.8171C12.8993 44.095 13.1214 44.3359 13.3846 44.5253C17.83 48.0801 23.3552 50.0117 29.0471 50.0009C34.739 49.9901 40.2569 48.0376 44.6887 44.466C45.1531 44.0594 45.4422 43.489 45.4955 42.8741C45.5488 42.2591 45.3622 41.6475 44.9748 41.167C44.5873 40.6865 44.029 40.3745 43.4167 40.2963C42.8045 40.2182 42.1857 40.3798 41.69 40.7475L41.6923 40.7487Z" fill="#015DE8"/>
<path d="M14.8796 9.72568C15.4215 9.72634 15.9474 9.5418 16.3701 9.20272C19.8087 6.45525 24.0496 4.90418 28.4494 4.78477C32.8492 4.66536 37.168 5.98416 40.7506 8.54108C41.0045 8.74118 41.2963 8.8877 41.6085 8.97177C41.9206 9.05584 42.2466 9.0757 42.5667 9.03018C42.8868 8.98466 43.1943 8.87473 43.4706 8.70696C43.747 8.53919 43.9865 8.31711 44.1745 8.05415C44.3626 7.7912 44.4954 7.4928 44.5648 7.17706C44.6343 6.86132 44.639 6.53478 44.5786 6.21718C44.5182 5.89957 44.3941 5.59748 44.2136 5.32923C44.0332 5.06099 43.8002 4.83215 43.5287 4.65652C39.0998 1.49418 33.7601 -0.136984 28.32 0.0106755C22.8799 0.158335 17.6365 2.07676 13.3856 5.4747C13.0016 5.78496 12.7231 6.20644 12.5884 6.68131C12.4536 7.15618 12.4692 7.66113 12.6329 8.12682C12.7966 8.5925 13.1004 8.99612 13.5027 9.28218C13.905 9.56824 14.386 9.72271 14.8796 9.72445V9.72568Z" fill="#015DE8"/>
</g>
<defs>
<clipPath id="clip0">
<rect width="60" height="50" fill="white"/>
</clipPath>
</defs>
</svg>
