<svg width="50" height="50" viewBox="0 0 50 50" fill="none" xmlns="http://www.w3.org/2000/svg">
<g clip-path="url(#clip0)">
<path d="M24.7523 9.26462C22.442 10.8895 19.8235 12.7312 18.4205 15.7782C15.9835 21.0942 23.407 26.8927 23.7243 27.137C23.798 27.1937 23.8863 27.222 23.9743 27.222C24.0677 27.222 24.1613 27.1901 24.2373 27.1264C24.3846 27.0032 24.4264 26.7938 24.338 26.6233C24.3111 26.5715 21.6464 21.3957 21.7455 17.6826C21.7805 16.3894 23.5904 14.9223 25.5064 13.369C27.2613 11.9464 29.2506 10.334 30.4144 8.44772C32.9695 4.29576 30.1297 0.213122 30.1007 0.172301C29.9879 0.0139022 29.7797 -0.0434223 29.6017 0.0346054C29.4238 0.113121 29.3253 0.305407 29.3659 0.495545C29.3717 0.522596 29.9239 3.22241 28.3872 6.00397C27.7542 7.15338 26.3632 8.13171 24.7523 9.26462Z" fill="#DB380E"/>
<path d="M34.486 11.0956C34.649 10.9729 34.6968 10.749 34.5983 10.5702C34.4996 10.3915 34.2847 10.3127 34.0939 10.3852C33.7014 10.5344 24.4829 14.0878 24.4829 18.3813C24.4829 21.341 25.7472 22.9045 26.6703 24.0463C27.0324 24.4941 27.345 24.8808 27.4481 25.211C27.7381 26.1625 27.051 27.8822 26.762 28.4647C26.6787 28.632 26.7195 28.835 26.8612 28.9572C26.9378 29.0233 27.0334 29.0569 27.1291 29.0569C27.2106 29.0569 27.2924 29.0327 27.3631 28.9835C27.5216 28.8733 31.2369 26.2466 30.5705 23.0818C30.3223 21.8789 29.7312 21 29.2096 20.2244C28.4016 19.0227 27.818 18.1547 28.7033 16.5516C29.7407 14.6817 34.4384 11.1312 34.486 11.0956Z" fill="#DB380E"/>
<path d="M10.49 29.1247C10.332 29.5979 10.4066 30.0672 10.7055 30.4824C11.7049 31.8698 15.2446 32.6337 20.6731 32.6337C20.6734 32.6337 20.6736 32.6337 20.6738 32.6337C21.4094 32.6337 22.1859 32.6193 22.9814 32.5907C31.6606 32.2801 34.8797 29.5762 35.0125 29.4612C35.1573 29.3359 35.1959 29.1274 35.106 28.9586C35.016 28.7899 34.8219 28.7052 34.6365 28.7563C31.5797 29.5908 25.872 29.8871 21.913 29.8871C17.483 29.8871 15.2269 29.568 14.6746 29.3323C14.958 28.9432 16.706 28.2482 18.8722 27.8222C19.0792 27.7815 19.2215 27.5903 19.201 27.3804C19.1805 27.1704 19.0041 27.0103 18.7931 27.0103C17.5233 27.0103 11.1556 27.1122 10.49 29.1247Z" fill="#73A1FB"/>
<path d="M39.5327 26.3398C37.7426 26.3398 36.045 27.2371 35.9735 27.2751C35.808 27.3638 35.724 27.5536 35.7694 27.736C35.815 27.9182 35.9788 28.0462 36.1666 28.0464C36.2046 28.0464 39.9851 28.0774 40.3275 30.2374C40.6309 32.1009 36.7505 35.1203 35.2297 36.1265C35.0654 36.2352 35.0016 36.4452 35.0779 36.6268C35.1428 36.7814 35.2933 36.8781 35.4556 36.8781C35.484 36.8781 35.5127 36.8751 35.5412 36.8691C35.9021 36.7918 44.3699 34.9258 43.4746 29.9956C42.9284 26.9741 41.0294 26.3398 39.5327 26.3398Z" fill="#73A1FB"/>
<path d="M33.7257 35.5231C33.7552 35.3652 33.6895 35.2045 33.5581 35.1122L31.5277 33.6901C31.4287 33.6207 31.3036 33.5989 31.1873 33.6297C31.1662 33.6351 29.0429 34.1933 25.9603 34.5356C24.7368 34.6728 23.3665 34.7452 21.9972 34.7452C18.9153 34.7452 16.9003 34.3831 16.6068 34.1175C16.568 34.0429 16.5803 34.009 16.5872 33.9902C16.6405 33.8419 16.9263 33.6657 17.1104 33.596C17.3139 33.5207 17.4235 33.2998 17.3602 33.0924C17.2972 32.8847 17.0832 32.7625 16.8721 32.8132C14.8353 33.3047 13.8394 33.992 13.9119 34.856C14.0406 36.3878 17.5887 37.174 20.5882 37.3819C21.0195 37.4114 21.486 37.4263 21.9744 37.4263C21.9747 37.4263 21.9749 37.4263 21.9752 37.4263C26.9629 37.4263 33.3571 35.8613 33.421 35.8454C33.5771 35.8073 33.6961 35.6813 33.7257 35.5231Z" fill="#73A1FB"/>
<path d="M18.4186 38.8106C18.5724 38.7106 18.6406 38.5205 18.586 38.3454C18.5316 38.1703 18.3678 38.0552 18.1838 38.0577C17.9109 38.0649 15.513 38.1731 15.3451 39.6998C15.2944 40.156 15.425 40.5729 15.7337 40.9386C16.5947 41.959 18.9187 42.5654 22.8374 42.7926C23.3009 42.8204 23.7718 42.8344 24.2372 42.8344C29.2191 42.8344 32.5744 41.2745 32.7149 41.2081C32.8512 41.1436 32.941 41.0097 32.949 40.8593C32.957 40.7089 32.8819 40.5663 32.7534 40.4877L30.1875 38.9212C30.0984 38.8669 29.9919 38.849 29.8903 38.8698C29.8741 38.8732 28.2449 39.2111 25.7862 39.5449C25.321 39.6082 24.7383 39.6403 24.0547 39.6403C21.5987 39.6403 18.8668 39.239 18.3429 38.9762C18.3353 38.9272 18.345 38.8649 18.4186 38.8106Z" fill="#73A1FB"/>
<path d="M21.9152 47.5442C33.3267 47.5345 39.4515 45.5051 40.6314 44.228C41.049 43.7763 41.0942 43.3485 41.0587 43.0691C40.971 42.3816 40.3447 41.9607 40.2737 41.915C40.1025 41.8049 39.8726 41.8337 39.739 41.9878C39.6057 42.1419 39.6025 42.3671 39.7363 42.5211C39.8083 42.6137 39.8499 42.7686 39.6395 42.9793C39.1678 43.4198 34.4104 44.757 26.4894 45.1588C25.4043 45.2151 24.2663 45.2438 23.107 45.244C16.0149 45.244 10.8245 44.2726 10.1432 43.7065C10.4058 43.3292 12.2417 42.7264 14.1942 42.3853C14.4142 42.347 14.5628 42.1396 14.5287 41.9189C14.4946 41.6983 14.2912 41.5465 14.0689 41.5753C14.0138 41.5828 13.8269 41.5939 13.6105 41.6072C10.389 41.8039 6.66619 42.2423 6.47195 43.9021C6.41297 44.4079 6.56326 44.8671 6.91883 45.2667C7.78885 46.2442 10.2895 47.544 21.9148 47.544C21.915 47.5442 21.915 47.5442 21.9152 47.5442Z" fill="#73A1FB"/>
<path d="M42.8728 44.5878C42.7115 44.5131 42.5208 44.5508 42.4005 44.6807C42.3838 44.6988 40.6681 46.4928 35.5095 47.5464C33.5346 47.9421 29.8275 48.1427 24.4913 48.1427C19.1451 48.1427 14.0578 47.9324 14.0071 47.9302C13.7946 47.9199 13.6129 48.0744 13.584 48.2836C13.555 48.4926 13.6898 48.6896 13.8949 48.7385C13.9479 48.751 19.2792 50 26.5687 50C30.0649 50 33.4671 49.7161 36.6809 49.1557C42.6732 48.1052 43.0927 45.1339 43.1076 45.008C43.1285 44.8319 43.0338 44.6624 42.8728 44.5878Z" fill="#73A1FB"/>
</g>
<defs>
<clipPath id="clip0">
<rect width="50" height="50" fill="white"/>
</clipPath>
</defs>
</svg>
