<svg width="50" height="50" viewBox="0 0 50 50" fill="none" xmlns="http://www.w3.org/2000/svg">
<path d="M0.0791016 0.157715H49.8949V49.9735H0.0791016V0.157715V0.157715ZM24.9738 21.3946C22.9475 21.3946 21.2896 23.0524 21.2896 25.0788C21.2896 26.5788 22.1844 27.9209 23.5528 28.4735C24.9212 29.0525 26.5002 28.7367 27.5528 27.684C28.6054 26.6314 28.9212 25.0524 28.3423 23.684C27.8159 22.2893 26.4738 21.3946 24.9738 21.3946ZM34.4475 22.5261C31.2896 22.5261 31.3686 27.5788 34.4738 27.5788H40.1317C43.3423 27.5788 42.8159 23.763 42.6317 22.763C42.6054 22.6314 42.4738 22.5261 42.3423 22.5261H34.4475ZM15.5265 27.5788C18.6844 27.5788 18.6054 22.5261 15.5002 22.5261H9.84226C6.63173 22.5261 7.15805 26.3419 7.34226 27.3419C7.36857 27.4735 7.50015 27.5788 7.63173 27.5788H15.5265ZM29.8686 16.5788C27.658 18.7893 31.2633 22.3156 33.4738 20.1314L37.4738 16.1314C39.737 13.8682 36.6844 11.5261 35.8423 10.9735C35.7107 10.8946 35.5528 10.8946 35.4475 10.9998L29.8686 16.5788ZM20.0791 33.5261C22.2896 31.3156 18.6844 27.7893 16.4738 29.9735L12.4738 33.9735C10.2107 36.2367 13.2633 38.5525 14.1054 39.1314C14.237 39.2103 14.3949 39.184 14.5002 39.1051L20.0791 33.5261ZM22.4475 15.5788C22.4475 18.7367 27.5002 18.6577 27.5002 15.5525V9.89456C27.5002 6.68403 23.6844 7.21035 22.6844 7.39456C22.5528 7.42087 22.4475 7.55245 22.4475 7.68403V15.5788ZM27.5002 34.5261C27.5002 31.3682 22.4475 31.4472 22.4475 34.5524V40.2103C22.4475 43.4209 26.2633 42.8945 27.2633 42.7103C27.3949 42.684 27.5002 42.5525 27.5002 42.4209V34.5261V34.5261ZM16.5002 20.1577C18.7107 22.3946 22.237 18.763 20.0528 16.5524L16.0528 12.5524C13.7896 10.2893 11.4475 13.3419 10.8949 14.184C10.8159 14.3156 10.8159 14.4735 10.9212 14.5524L16.5002 20.1577ZM33.4475 29.9472C31.237 27.7103 27.7107 31.3419 29.8949 33.5524L33.8949 37.5525C36.158 39.8156 38.5001 36.763 39.0528 35.9209C39.1317 35.7893 39.1317 35.6314 39.0265 35.5524L33.4475 29.9472Z" fill="#F05A22"/>
</svg>
