<svg width="49" height="50" viewBox="0 0 49 50" fill="none" xmlns="http://www.w3.org/2000/svg">
<path fill-rule="evenodd" clip-rule="evenodd" d="M47.7173 11.1191C47.735 11.1846 47.7441 11.2522 47.7442 11.3201V21.8701C47.7442 22.0055 47.7085 22.1385 47.6406 22.2557C47.5728 22.3728 47.4752 22.47 47.3577 22.5374L38.5029 27.6355V37.7403C38.5029 38.0153 38.3567 38.2691 38.1183 38.4076L19.6346 49.048C19.5923 49.072 19.5462 49.0874 19.5 49.1037C19.4827 49.1095 19.4663 49.1201 19.4481 49.1249C19.3189 49.1589 19.1831 49.1589 19.0538 49.1249C19.0327 49.1191 19.0135 49.1076 18.9933 49.0999C18.951 49.0845 18.9067 49.071 18.8663 49.048L0.386538 38.4076C0.269142 38.3401 0.171597 38.2429 0.103735 38.1258C0.0358735 38.0086 9.30186e-05 37.8757 0 37.7403L0 6.09026C0 6.02103 0.00961539 5.95372 0.0269231 5.88834C0.0326923 5.86622 0.0461538 5.84603 0.0538462 5.82392C0.0682692 5.78353 0.0817308 5.74218 0.102885 5.70468C0.117308 5.67968 0.138462 5.65949 0.155769 5.63641C0.177885 5.60565 0.198077 5.57391 0.224038 5.54699C0.246154 5.52488 0.275 5.50853 0.3 5.4893C0.327885 5.46622 0.352885 5.44122 0.384615 5.42295H0.385577L9.62596 0.102761C9.74296 0.0354344 9.87559 0 10.0106 0C10.1456 0 10.2782 0.0354344 10.3952 0.102761L19.6356 5.42295H19.6375C19.6683 5.44218 19.6942 5.46622 19.7221 5.48834C19.7471 5.50757 19.775 5.52488 19.7971 5.54603C19.824 5.57391 19.8433 5.60565 19.8663 5.63641C19.8827 5.65949 19.9048 5.67968 19.9183 5.70468C19.9404 5.74315 19.9529 5.78353 19.9683 5.82392C19.976 5.84603 19.9894 5.86622 19.9952 5.8893C20.0129 5.95483 20.0219 6.02239 20.0221 6.09026V25.8585L27.7221 21.4249V11.3191C27.7221 11.2518 27.7317 11.1835 27.749 11.1191C27.7558 11.096 27.7683 11.0758 27.776 11.0537C27.7913 11.0133 27.8048 10.972 27.826 10.9345C27.8404 10.9095 27.8615 10.8893 27.8779 10.8662C27.901 10.8355 27.9202 10.8037 27.9471 10.7768C27.9692 10.7547 27.9971 10.7383 28.0221 10.7191C28.051 10.696 28.076 10.671 28.1067 10.6528H28.1077L37.349 5.33257C37.466 5.26515 37.5986 5.22966 37.7337 5.22966C37.8687 5.22966 38.0013 5.26515 38.1183 5.33257L47.3587 10.6528C47.3913 10.672 47.4163 10.696 47.4452 10.7181C47.4692 10.7374 47.4971 10.7547 47.5192 10.7758C47.5462 10.8037 47.5654 10.8355 47.5885 10.8662C47.6058 10.8893 47.6269 10.9095 47.6404 10.9345C47.6625 10.972 47.675 11.0133 47.6904 11.0537C47.699 11.0758 47.7115 11.096 47.7173 11.1191V11.1191ZM46.2038 21.4249V12.6518L42.9702 14.5133L38.5029 17.0855V25.8585L46.2048 21.4249H46.2038ZM36.9635 37.2951V28.5162L32.5692 31.0258L20.0212 38.1874V47.0489L36.9635 37.2951ZM1.54038 7.42199V37.2951L18.4808 47.048V38.1883L9.63077 33.1797L9.62788 33.1778L9.62404 33.1758C9.59423 33.1585 9.56923 33.1335 9.54135 33.1124C9.51731 33.0931 9.48942 33.0778 9.46827 33.0566L9.46635 33.0537C9.44135 33.0297 9.42404 32.9999 9.40288 32.973C9.38365 32.947 9.36058 32.9249 9.34519 32.898L9.34423 32.8951C9.32692 32.8662 9.31635 32.8316 9.30385 32.7989C9.29135 32.7701 9.275 32.7431 9.26731 32.7124V32.7114C9.25769 32.6749 9.25577 32.6364 9.25192 32.5989C9.24808 32.5701 9.24038 32.5412 9.24038 32.5124V32.5105V11.8556L4.77404 9.28257L1.54038 7.42295V7.42199ZM10.0115 1.65853L2.3125 6.09026L10.0096 10.522L17.7077 6.0893L10.0096 1.65853H10.0115ZM14.0154 29.3162L18.4817 26.7451V7.42199L15.2481 9.28353L10.7808 11.8556V31.1787L14.0154 29.3162ZM37.7337 6.88834L30.0356 11.3201L37.7337 15.7518L45.4308 11.3191L37.7337 6.88834V6.88834ZM36.9635 17.0855L32.4962 14.5133L29.2625 12.6518V21.4249L33.7288 23.996L36.9635 25.8585V17.0855ZM19.25 36.8556L30.5413 30.4095L36.1856 27.1883L28.4933 22.7595L19.6365 27.8585L11.5644 32.5056L19.25 36.8556V36.8556Z" fill="#FF2D20"/>
</svg>
