<svg width="50" height="50" viewBox="0 0 50 50" fill="none" xmlns="http://www.w3.org/2000/svg">
<path d="M48.6328 20.2586L43.6563 19.9261C43.2716 18.5518 42.7318 17.2323 42.0434 15.9832L45.3473 12.1598C45.8466 11.5819 45.8182 10.7174 45.2821 10.1736L40.7083 5.53418C40.161 4.9791 39.2749 4.94961 38.6922 5.46748L34.9434 8.79814C34.0528 8.2959 33.1244 7.87119 32.1669 7.52812L31.8141 2.11143C31.7639 1.34102 31.1243 0.741797 30.3523 0.741797H25C24.202 0.741797 23.5542 1.38037 23.5368 2.17422C22.0186 0.82168 20.0278 0 17.8506 0C12.8837 0 8.91084 4.26807 9.2582 9.32451C7.61904 9.6751 6.11602 10.5039 4.91553 11.7388C3.32129 13.3786 2.44336 15.5486 2.44336 17.8491C2.44336 19.3734 2.8373 20.8593 3.57285 22.165C1.36074 23.7836 0 26.4056 0 29.2322C0 31.3605 0.780566 33.4232 2.16416 35.0072C2.11338 35.3912 2.08789 35.7796 2.08789 36.1687C2.08789 40.7325 5.57314 44.4883 9.99248 44.8546C11.3416 47.8782 14.3287 50 17.8506 50C20.0278 50 22.0186 49.1782 23.5368 47.8256C23.5541 48.6196 24.2019 49.2583 25 49.2583H30.3521C31.1242 49.2583 31.7638 48.6591 31.8139 47.8887L32.1667 42.4716C33.1253 42.1278 34.0538 41.7032 34.9433 41.2018L38.6921 44.5316C39.2747 45.049 40.1606 45.0199 40.7079 44.4649L45.2817 39.8266C45.818 39.2828 45.8464 38.4183 45.3472 37.8404L42.0432 34.0159C42.7315 32.7671 43.2713 31.4478 43.6561 30.0739L48.6328 29.7414C49.4021 29.6899 50 29.0509 50 28.2798V21.7201C50 20.9491 49.4021 20.3101 48.6328 20.2586V20.2586ZM26.4648 15.8521C31.2446 16.0687 35.0677 20.0888 35.0677 25C35.0677 29.9106 31.2446 33.9303 26.4648 34.1468V15.8521ZM17.8506 47.0703C15.3376 47.0703 13.154 45.4297 12.417 42.9878C12.2221 42.3419 11.6098 41.9099 10.9304 41.9486C8.22383 42.1041 5.62168 40.099 5.10869 37.1941C7.3748 38.216 9.98174 38.2425 12.4914 36.9749C13.2959 37.6019 14.3029 37.9762 15.3954 37.9762C15.4654 37.9762 15.5355 37.9748 15.6042 37.9721C16.4126 37.9403 17.0423 37.2594 17.0104 36.451C16.9787 35.6426 16.2974 35.0137 15.4894 35.0447C15.4584 35.0459 15.4269 35.0466 15.3954 35.0466C13.7711 35.0466 12.9558 33.0301 14.0878 31.8513C14.6481 31.2677 14.6293 30.3403 14.0457 29.7801C13.4621 29.2198 12.535 29.2386 11.9746 29.8222C11.1094 30.7233 10.6328 31.9112 10.6328 33.167C10.6328 33.6383 10.7015 34.0936 10.8272 34.5242C8.59063 35.5003 6.28779 34.9312 4.74385 33.4682C4.74365 33.468 4.74346 33.4677 4.74316 33.4675C3.59062 32.3772 2.92969 30.8336 2.92969 29.2322C2.92969 26.9582 4.24639 24.8863 6.28398 23.9538C6.28418 23.9537 6.28447 23.9536 6.28477 23.9535C7.01904 23.6173 7.80283 23.4468 8.61426 23.4468C8.92129 23.4468 9.22822 23.4716 9.52647 23.5205C10.325 23.6515 11.0782 23.1104 11.2092 22.3121C11.3401 21.5138 10.7991 20.7604 10.0008 20.6294C9.54619 20.5548 9.07969 20.517 8.61416 20.517C7.78945 20.517 6.9833 20.6333 6.20518 20.8628C5.66445 19.9611 5.37295 18.9201 5.37295 17.849C5.37295 15.0622 7.34844 12.7077 9.94814 12.1777C10.5467 13.5713 11.5026 14.8 12.7196 15.7145C13.3664 16.2004 14.2847 16.07 14.7706 15.4231C15.2565 14.7764 15.1262 13.8581 14.4793 13.3722C13.4463 12.5961 12.6947 11.4787 12.3633 10.226C12.3632 10.2255 12.3629 10.225 12.3628 10.2244C12.3627 10.2241 12.3627 10.2238 12.3626 10.2236C11.3866 6.55996 14.1134 2.92969 17.8506 2.92969C20.9851 2.92969 23.5352 5.52461 23.5352 8.71416V9.26807C22.3122 9.51953 21.1637 10.0814 20.2066 10.9138C18.8945 12.0549 18.0187 13.6304 17.7405 15.3503C17.728 15.4276 17.7218 15.5059 17.7218 15.5842V15.5852C17.7218 16.3941 18.3776 17.0495 19.1866 17.0495C19.9231 17.0495 20.5327 16.5055 20.636 15.7976C20.9123 14.1361 22.0473 12.825 23.5353 12.2982V27.318C22.8382 26.8955 22.3299 26.1767 22.1826 25.3093C22.081 24.5995 21.4705 24.0543 20.7326 24.0543C19.8297 24.0543 19.1428 24.8634 19.2865 25.7533C19.6646 28.0908 21.3587 29.8997 23.5352 30.4679V40.2448C22.8382 39.8224 22.3299 39.1036 22.1826 38.2364C22.0811 37.5266 21.4705 36.9812 20.7326 36.9812C19.9236 36.9812 19.2678 37.6374 19.2678 38.4464C19.2678 38.5247 19.274 38.6029 19.2865 38.6803C19.6439 40.8898 21.1771 42.6276 23.182 43.2912C22.3787 45.4954 20.2922 47.0703 17.8506 47.0703V47.0703ZM47.0703 26.9096L42.3949 27.222C41.7435 27.2655 41.1994 27.735 41.061 28.3731C40.6733 30.1608 39.9827 31.851 39.0083 33.3969C38.6646 33.9421 38.7177 34.6479 39.1391 35.1356L42.2464 38.7325L39.5983 41.418L36.0821 38.2947C35.5895 37.8571 34.8652 37.8023 34.3124 38.1608C33.0835 38.9576 31.7521 39.5706 30.3553 39.9825C29.766 40.1562 29.3478 40.6793 29.3078 41.2923L28.9798 46.3287H26.4648V41.285V37.0795C32.8605 36.8621 37.9974 31.5271 37.9974 25.0002C37.9974 18.4728 32.8605 13.1372 26.4648 12.9198V8.71416V3.67139H28.9796L29.3076 8.70791C29.3476 9.32129 29.7662 9.84453 30.356 10.018C31.7494 10.4279 33.0805 11.0407 34.3122 11.8393C34.8651 12.1979 35.5894 12.143 36.082 11.7052L39.5981 8.58125L42.2462 11.2673L39.139 14.8631C38.7176 15.3508 38.6645 16.0567 39.0081 16.602C39.9826 18.1479 40.6732 19.8385 41.0608 21.6266C41.1992 22.2647 41.7433 22.7343 42.3948 22.7778L47.0703 23.0904V26.9096Z" fill="#2754BA"/>
</svg>
