<svg width="46" height="50" viewBox="0 0 46 50" fill="none" xmlns="http://www.w3.org/2000/svg">
<path d="M23.2955 0.387207C22.6503 0.387207 22.0217 0.520778 21.4646 0.835064L3.88055 10.9903C2.74245 11.6458 2.05078 12.8843 2.05078 14.2015V34.4755C2.05078 35.7922 2.74245 37.0286 3.88055 37.6863L8.47293 40.3327C10.7044 41.4327 11.5272 41.4151 12.5429 41.4151C15.8463 41.4151 17.7313 39.4105 17.7313 35.9265V15.9248C17.7313 15.642 17.486 15.4396 17.2098 15.4396H15.0067C14.7243 15.4396 14.4841 15.6472 14.4841 15.9248V35.937C14.4841 37.4813 12.8756 39.0348 10.2653 37.7293L5.49126 34.9291C5.32269 34.8372 5.19246 34.6696 5.19246 34.4813V14.2072C5.19246 14.0151 5.32102 13.8191 5.49126 13.722L23.0384 3.60316C23.2051 3.50864 23.4003 3.50864 23.5622 3.60316L41.1098 13.722C41.2765 13.8222 41.4098 14.0089 41.4098 14.2072V34.4813C41.4098 34.6748 41.3122 34.8732 41.1479 34.9665L23.5622 45.0855C23.4075 45.1753 23.2003 45.1753 23.0408 45.0855L18.5217 42.3974C18.3884 42.3186 18.2051 42.3248 18.0741 42.3974C16.8265 43.1041 16.5929 43.1862 15.4239 43.592C15.1358 43.6922 14.6975 43.8484 15.5734 44.3391L21.4717 47.816C22.0336 48.1408 22.6598 48.3013 23.3027 48.3013C23.9527 48.3013 24.5694 48.1455 25.1313 47.816L42.717 37.697C43.8551 37.0348 44.5455 35.8029 44.5455 34.4865V14.2124C44.5455 12.8953 43.8551 11.6594 42.717 11.0013L25.1313 0.846017C24.5813 0.531494 23.9479 0.398161 23.3027 0.398161L23.2955 0.387207ZM28.0003 14.8746C22.9932 14.8746 20.0098 17.0058 20.0098 20.5493C20.0098 24.3893 22.9694 25.4501 27.7765 25.9253C33.5265 26.4884 33.9741 27.3327 33.9741 28.4643C33.9741 30.4274 32.4098 31.2646 28.7098 31.2646C24.0622 31.2646 23.0408 30.1043 22.6979 27.7877C22.6574 27.5398 22.467 27.3401 22.2122 27.3401H19.9313C19.7932 27.3429 19.6622 27.3991 19.5646 27.4965C19.467 27.5936 19.4098 27.7248 19.4075 27.8624C19.4075 30.822 21.017 34.3215 28.7051 34.3215C34.2694 34.3215 37.4789 32.142 37.4789 28.3103C37.4789 24.5222 34.886 23.4984 29.4884 22.7839C24.0408 22.0574 23.5146 21.7096 23.5146 20.4315C23.5146 19.3772 23.9551 17.9667 27.9956 17.9667C31.6027 17.9667 32.936 18.7451 33.4837 21.1777C33.5313 21.406 33.7336 21.5929 33.9694 21.5929H36.2527C36.3932 21.5929 36.5289 21.5067 36.6265 21.406C36.7217 21.2986 36.7884 21.1777 36.7741 21.0324C36.4217 16.8427 33.6289 14.872 28.0003 14.872V14.8746Z" fill="#83CD29"/>
</svg>
