<svg width="95" height="50" viewBox="0 0 95 50" fill="none" xmlns="http://www.w3.org/2000/svg">
<g clip-path="url(#clip0)">
<path d="M0.315918 24.9997C0.315918 38.6321 21.325 49.6836 47.2401 49.6836C73.1552 49.6836 94.1645 38.6321 94.1645 24.9997C94.1645 11.3674 73.1552 0.315787 47.2401 0.315787C21.325 0.315787 0.315918 11.3674 0.315918 24.9997Z" fill="url(#paint0_radial)"/>
<path d="M47.2401 47.8511C72.143 47.8511 92.3313 37.6202 92.3313 24.9998C92.3313 12.3796 72.143 2.14854 47.2401 2.14854C22.3373 2.14854 2.14893 12.3796 2.14893 24.9998C2.14893 37.6202 22.3373 47.8511 47.2401 47.8511Z" fill="#777BB3"/>
<path d="M25.8102 27.833C27.8579 27.833 29.3866 27.4554 30.3538 26.711C31.3107 25.9742 31.9716 24.6978 32.318 22.9172C32.6409 21.253 32.5179 20.0909 31.9524 19.4638C31.3741 18.8233 30.124 18.4984 28.2367 18.4984H24.9643L23.1502 27.833H25.8102ZM15.1072 39.3315C14.9553 39.3315 14.811 39.2637 14.7144 39.1462C14.6177 39.0289 14.5785 38.8745 14.6075 38.7253L19.4153 13.9884C19.4618 13.7493 19.6714 13.5765 19.9152 13.5765H30.2772C33.5338 13.5765 35.9578 14.4608 37.4814 16.205C39.0131 17.9584 39.4861 20.4093 38.8871 23.4895C38.6434 24.7444 38.2242 25.9099 37.6412 26.9534C37.0576 27.998 36.2862 28.9645 35.3481 29.8267C34.2253 30.8776 32.9544 31.6397 31.5742 32.0881C30.216 32.5305 28.4716 32.7549 26.3896 32.7549H22.1938L20.9956 38.9195C20.9491 39.1588 20.7397 39.3315 20.4959 39.3315H15.1072Z" fill="black"/>
<path d="M25.384 19.0072H28.2366C30.5144 19.0072 31.3057 19.507 31.5745 19.8049C32.0205 20.2995 32.1047 21.3422 31.8181 22.8203C31.4959 24.4751 30.8989 25.6483 30.0431 26.3072C29.167 26.9817 27.7427 27.3235 25.8101 27.3235H23.7677L25.384 19.0072ZM30.2772 13.067H19.9149C19.4275 13.067 19.0084 13.4126 18.9154 13.891L14.1076 38.6279C14.0496 38.9264 14.128 39.2351 14.3213 39.4698C14.5148 39.7046 14.8029 39.8403 15.1071 39.8403H20.4957C20.9833 39.8403 21.4023 39.4948 21.4953 39.0163L22.6135 33.2637H26.3896C28.525 33.2637 30.3227 33.0308 31.7322 32.5717C33.1818 32.1008 34.5154 31.3022 35.6958 30.1984C36.6721 29.3002 37.4762 28.2921 38.0855 27.2016C38.6949 26.1108 39.1328 24.8945 39.3869 23.5862C40.0174 20.3439 39.5052 17.7475 37.8647 15.8698C36.2401 14.01 33.6872 13.067 30.2772 13.067ZM22.5323 28.3418H25.8101C27.9827 28.3418 29.601 27.9326 30.6643 27.114C31.7278 26.2953 32.445 24.9289 32.8177 23.0141C33.1743 21.1757 33.0119 19.8784 32.3304 19.1226C31.6482 18.3669 30.2838 17.9889 28.2366 17.9889H24.5445L22.5323 28.3418V28.3418ZM30.2772 14.0853C33.3944 14.0853 35.6685 14.9034 37.0979 16.5396C38.5271 18.1759 38.9575 20.4598 38.3872 23.3921C38.1525 24.6 37.7555 25.7044 37.1967 26.7049C36.6371 27.706 35.9064 28.6215 35.0035 29.4516C33.9275 30.4586 32.7322 31.1761 31.4168 31.6035C30.1015 32.032 28.4262 32.2454 26.3896 32.2454H21.7739L20.4957 38.822H15.1071L19.9149 14.0853H30.2772" fill="white"/>
<path d="M51.2425 32.7549C51.0904 32.7549 50.9464 32.687 50.8498 32.5695C50.7529 32.4523 50.7137 32.298 50.7427 32.1486L52.8695 21.2036C53.0718 20.1627 53.0219 19.4156 52.7291 19.0999C52.5499 18.9069 52.0115 18.5833 50.4197 18.5833H46.5667L43.8928 32.3428C43.8463 32.5821 43.6367 32.7549 43.393 32.7549H38.0468C37.8947 32.7549 37.7506 32.687 37.6539 32.5695C37.5571 32.4523 37.5179 32.2978 37.547 32.1486L42.3548 7.41177C42.4013 7.17263 42.6109 6.99986 42.8546 6.99986H48.2008C48.3529 6.99986 48.497 7.06775 48.5937 7.18502C48.6904 7.30247 48.7296 7.45675 48.7006 7.6061L47.5404 13.5765H51.6853C54.843 13.5765 56.9841 14.1332 58.2312 15.2785C59.5024 16.4468 59.8991 18.3149 59.4103 20.8315L57.1734 32.3428C57.1269 32.5821 56.9174 32.7549 56.6736 32.7549H51.2425Z" fill="black"/>
<path d="M48.2007 6.49034H42.8545C42.3669 6.49034 41.9479 6.83589 41.8549 7.31433L37.047 32.0512C36.989 32.3497 37.0674 32.6585 37.2609 32.8932C37.4544 33.1279 37.7426 33.2637 38.0467 33.2637H43.3929C43.8803 33.2637 44.2995 32.9181 44.3925 32.4397L46.9864 19.0921H50.4196C52.0087 19.0921 52.3422 19.4315 52.3556 19.4461C52.452 19.5498 52.5788 20.0301 52.3695 21.1061L50.2428 32.0512C50.1847 32.3497 50.2631 32.6585 50.4566 32.8932C50.6501 33.1279 50.9383 33.2637 51.2424 33.2637H56.6735C57.1609 33.2637 57.5801 32.9181 57.6731 32.4397L59.9099 20.9284C60.4348 18.2263 59.9857 16.1993 58.5757 14.9034C57.2302 13.6676 54.9763 13.067 51.6852 13.067H48.1578L49.2004 7.70299C49.2582 7.40446 49.18 7.09557 48.9865 6.86101C48.793 6.62629 48.5048 6.49034 48.2007 6.49034ZM48.2007 7.50866L46.9225 14.0853H51.6852C54.682 14.0853 56.749 14.6084 57.8866 15.6532C59.0243 16.6987 59.3651 18.3926 58.9104 20.7343L56.6735 32.2454H51.2424L53.3692 21.3004C53.6112 20.0554 53.5223 19.2061 53.1021 18.7533C52.6817 18.3005 51.7874 18.0737 50.4196 18.0737H46.1468L43.3929 32.2454H38.0467L42.8545 7.50866H48.2007Z" fill="white"/>
<path d="M67.8693 27.833C69.9169 27.833 71.4456 27.4554 72.4129 26.711C73.3697 25.9744 74.0306 24.6979 74.3772 22.9172C74.7002 21.253 74.5771 20.0909 74.0114 19.4638C73.4332 18.8233 72.183 18.4984 70.2958 18.4984H67.0234L65.2093 27.833H67.8693ZM57.1664 39.3315C57.0145 39.3315 56.8702 39.2637 56.7737 39.1462C56.6769 39.0289 56.6375 38.8745 56.6666 38.7253L61.4744 13.9884C61.5211 13.7493 61.7305 13.5765 61.9744 13.5765H72.3363C75.5931 13.5765 78.0168 14.4608 79.5406 16.205C81.0723 17.9582 81.5451 20.4091 80.9464 23.4895C80.7023 24.7444 80.2833 25.9099 79.7003 26.9534C79.1166 27.998 78.3452 28.9645 77.4072 29.8267C76.2843 30.8776 75.0135 31.6397 73.6333 32.0881C72.275 32.5305 70.5307 32.7549 68.4487 32.7549H64.2527L63.055 38.9195C63.0083 39.1588 62.7989 39.3315 62.555 39.3315H57.1664Z" fill="black"/>
<path d="M67.4434 19.0072H70.2961C72.5739 19.0072 73.3651 19.507 73.6339 19.8049C74.0801 20.2995 74.1643 21.3422 73.8775 22.8201C73.5554 24.4751 72.9581 25.6483 72.1026 26.3072C71.2265 26.9817 69.8022 27.3235 67.8696 27.3235H65.8273L67.4434 19.0072ZM72.3366 13.067H61.9745C61.4871 13.067 61.068 13.4126 60.975 13.891L56.1672 38.6279C56.1091 38.9264 56.1875 39.2351 56.3808 39.4698C56.5743 39.7046 56.8625 39.8403 57.1667 39.8403H62.5553C63.0427 39.8403 63.4619 39.4948 63.5549 39.0163L64.6729 33.2637H68.449C70.5844 33.2637 72.3821 33.0308 73.7916 32.5717C75.2412 32.1008 76.5752 31.3021 77.7556 30.198C78.7318 29.3 79.5356 28.2921 80.1449 27.2016C80.7544 26.1108 81.1923 24.8945 81.4463 23.5862C82.0769 20.3437 81.5646 17.7474 79.9241 15.8696C78.2996 14.01 75.7468 13.067 72.3366 13.067ZM64.5919 28.3418H67.8696C70.0422 28.3418 71.6604 27.9326 72.7237 27.114C73.7874 26.2953 74.5044 24.9289 74.8771 23.0141C75.2339 21.1757 75.0715 19.8784 74.3899 19.1226C73.7076 18.3669 72.3432 17.9889 70.2961 17.9889H66.604L64.5919 28.3418ZM72.3366 14.0853C75.4539 14.0853 77.7279 14.9034 79.1573 16.5396C80.5867 18.1759 81.017 20.4598 80.4467 23.3921C80.212 24.6 79.815 25.7044 79.2561 26.7049C78.6965 27.706 77.9659 28.6215 77.063 29.4516C75.9869 30.4586 74.7916 31.1761 73.4763 31.6035C72.1609 32.032 70.4856 32.2454 68.449 32.2454H63.8333L62.5553 38.822H57.1667L61.9745 14.0853H72.3366" fill="white"/>
</g>
<defs>
<radialGradient id="paint0_radial" cx="0" cy="0" r="1" gradientUnits="userSpaceOnUse" gradientTransform="translate(28.4894 8.99389) scale(61.6182)">
<stop stop-color="#AEB2D5"/>
<stop offset="0.3" stop-color="#AEB2D5"/>
<stop offset="0.75" stop-color="#484C89"/>
<stop offset="1" stop-color="#484C89"/>
</radialGradient>
<clipPath id="clip0">
<rect width="94.7917" height="50" fill="white"/>
</clipPath>
</defs>
</svg>
