<svg width="34" height="50" viewBox="0 0 34 50" fill="none" xmlns="http://www.w3.org/2000/svg">
<path d="M30.3191 23.8775C29.9323 23.4908 29.1073 22.9509 28.1352 22.4186L25.2371 19.3855L22.0326 22.4186H21.153L17.3479 16.9074C15.2566 16.9226 13.5611 18.6302 13.5762 20.7216L8.18335 17.5186C6.94433 18.0706 6.07685 19.3081 6.07685 20.7534V22.2093L0.0106158 28.5303L0.0348805 31.844L15.1762 48.1152C15.1762 48.1152 31.1274 24.93 31.1653 24.9755C30.9697 24.6373 30.3873 23.9109 30.3191 23.8775Z" fill="#E0AA94"/>
<path d="M28.1352 3.84983C28.1352 2.171 26.7612 0.797 25.0824 0.797C23.4035 0.797 22.0295 2.171 22.0295 3.84983V22.4201H28.1337V3.84983H28.1352ZM21.1515 22.4186V19.3187C21.1393 17.646 19.7729 16.2993 18.1001 16.3114C16.4274 16.3235 15.0807 17.69 15.0928 19.3627L15.111 22.4201H21.1515V22.4186ZM2.90573 19.3036H3.16051C4.76655 19.3036 6.06624 20.6048 6.06624 22.2108V28.5288C6.06624 30.1348 4.76655 31.436 3.16051 31.436H2.90573C1.29969 31.436 0 30.1348 0 28.5288V22.2108C0 20.6048 1.29969 19.3036 2.90573 19.3036ZM13.3973 23.7926L13.3124 23.8866C12.5935 24.6889 12.1325 25.7232 12.1325 26.8864C12.1325 26.9819 12.1522 27.0729 12.1598 27.1669C12.2265 28.1952 12.6269 29.1263 13.2638 29.8573C13.1562 30.0529 13.0166 30.2258 12.871 30.3927C12.316 31.0251 11.5213 31.436 10.6159 31.436C8.94163 31.436 7.5828 30.0772 7.5828 28.4029V19.3036C7.5828 18.6348 7.80573 18.0221 8.17274 17.5201C8.72477 16.7664 9.60892 16.2705 10.6159 16.2705C12.2902 16.2705 13.649 17.6293 13.649 19.3036V23.5166C13.5565 23.6 13.4837 23.7031 13.3973 23.7926V23.7926Z" fill="#F7DECE"/>
<path d="M3.12715 32.9526C4.6801 32.9526 6.04652 32.1549 6.84272 30.9477C7.02925 31.2252 7.2537 31.4724 7.49635 31.7014C9.29348 33.3924 12.0976 33.2847 13.8159 31.571C14.0464 31.3405 14.2754 31.1085 14.4513 30.8309L14.4467 30.8264C14.7516 31.0008 15.1656 31.436 16.6822 31.436H20.5297C19.9685 31.8592 19.4559 32.3809 18.9767 32.9526C17.1144 35.1774 15.9239 38.4213 15.9239 42.052C15.9239 42.4705 16.2636 42.8102 16.6822 42.8102C17.1007 42.8102 17.4404 42.4705 17.4404 42.052C17.4404 38.1878 18.8903 34.8104 21.0453 32.9526C22.1554 31.9957 23.4475 31.436 24.8337 31.436C25.915 31.5559 26.1182 29.9195 25.0232 29.9195H16.6822C15.0079 29.9195 13.649 28.5607 13.649 26.8864C13.649 25.2121 15.0079 23.8533 16.6822 23.8533H28.8146C30.1158 23.8533 31.3321 24.7571 31.7158 25.9992L33.3643 31.436C33.5205 31.9441 34.0907 34.2735 33.9876 34.7588C33.9876 42.052 26.8659 49.6348 18.1987 49.6348C8.28496 49.6348 0.236583 41.7016 0.0212317 31.8395L0.0424634 31.8546C0.823492 32.5295 1.82594 32.9526 2.93909 32.9526H3.12715Z" fill="#F7DECE"/>
</svg>
