<svg width="51" height="50" viewBox="0 0 51 50" fill="none" xmlns="http://www.w3.org/2000/svg">
<g clip-path="url(#clip0)">
<path d="M24.9497 0C12.1901 9.10365e-07 12.9869 5.53331 12.9869 5.53331L13.0011 11.2658H25.1773V12.9869H8.16483C8.16483 12.9869 0 12.061 0 24.9355C-9.10365e-07 37.81 7.12645 37.3534 7.12645 37.3534H11.3796V31.3791C11.3796 31.3791 11.1503 24.2527 18.3922 24.2527C25.6341 24.2527 30.4688 24.2527 30.4688 24.2527C30.4688 24.2527 37.2538 24.3624 37.2538 17.6952C37.2538 11.0281 37.2538 6.67127 37.2538 6.67127C37.2538 6.67127 38.284 0 24.9497 0ZM18.2357 3.85483C19.4472 3.85482 20.4263 4.83396 20.4263 6.04539C20.4263 7.25683 19.4472 8.23596 18.2357 8.23596C17.0243 8.23596 16.0452 7.25683 16.0452 6.04539C16.0452 4.83396 17.0243 3.85483 18.2357 3.85483Z" fill="url(#paint0_linear)"/>
<path d="M25.3123 49.9999C38.0719 49.9999 37.2751 44.4666 37.2751 44.4666L37.2609 38.7342H25.0848V37.013H42.0972C42.0972 37.013 50.262 37.939 50.262 25.0645C50.262 12.19 43.1356 12.6465 43.1356 12.6465H38.8825V18.6208C38.8825 18.6208 39.1117 25.7472 31.8698 25.7472C24.6279 25.7472 19.7933 25.7472 19.7933 25.7472C19.7933 25.7472 13.0082 25.6376 13.0082 32.3047C13.0082 38.9719 13.0082 43.3287 13.0082 43.3287C13.0082 43.3287 11.978 49.9999 25.3123 49.9999ZM32.0263 46.1451C30.8148 46.1451 29.8357 45.166 29.8357 43.9545C29.8357 42.7431 30.8148 41.764 32.0263 41.764C33.2377 41.764 34.2168 42.7431 34.2168 43.9545C34.2169 45.166 33.2377 46.1451 32.0263 46.1451Z" fill="url(#paint1_linear)"/>
</g>
<defs>
<linearGradient id="paint0_linear" x1="4.83025" y1="4.37044" x2="29.6832" y2="29.3065" gradientUnits="userSpaceOnUse">
<stop stop-color="#387EB8"/>
<stop offset="1" stop-color="#366994"/>
</linearGradient>
<linearGradient id="paint1_linear" x1="20.119" y1="20.2336" x2="46.8112" y2="45.806" gradientUnits="userSpaceOnUse">
<stop stop-color="#FFE052"/>
<stop offset="1" stop-color="#FFC331"/>
</linearGradient>
<clipPath id="clip0">
<rect width="50.2617" height="50" fill="white"/>
</clipPath>
</defs>
</svg>
