<svg width="58" height="50" viewBox="0 0 58 50" fill="none" xmlns="http://www.w3.org/2000/svg">
<path d="M57.1429 25.0057C57.1429 21.2863 52.4023 17.7615 45.1342 15.5756C46.8115 8.29709 46.066 2.50629 42.7814 0.652323C42.0243 0.217441 41.1391 0.0114441 40.1724 0.0114441V2.56352C40.7082 2.56352 41.1391 2.66651 41.5002 2.86107C43.0843 3.75372 43.7715 7.15267 43.2357 11.5244C43.1076 12.6001 42.8979 13.7331 42.6417 14.889C40.3587 14.3397 37.8662 13.9162 35.2455 13.6416C33.673 11.5244 32.0424 9.60174 30.4001 7.91943C34.1972 4.45182 37.7613 2.55207 40.184 2.55207V0C36.981 0 32.7878 2.24308 28.5481 6.13413C24.3084 2.26597 20.1153 0.0457772 16.9122 0.0457772V2.59785C19.3233 2.59785 22.8991 4.48615 26.6962 7.93088C25.0655 9.61318 23.4349 11.5244 21.8857 13.6416C19.2534 13.9162 16.7608 14.3397 14.4779 14.9004C14.21 13.756 14.012 12.6459 13.8722 11.5816C13.3248 7.20989 14.0003 3.81094 15.5728 2.90684C15.9222 2.70085 16.3764 2.60929 16.9122 2.60929V0.0572213C15.9338 0.0572213 15.0486 0.263218 14.2799 0.6981C11.0069 2.55207 10.2731 8.33143 11.962 15.5871C4.71726 17.7844 0 21.2978 0 25.0057C0 28.7251 4.74055 32.2499 12.0086 34.4358C10.3314 41.7143 11.0768 47.5051 14.3614 49.3591C15.1185 49.794 16.0037 50 16.9821 50C20.1852 50 24.3783 47.7569 28.618 43.8659C32.8577 47.734 37.0508 49.9542 40.2539 49.9542C41.2323 49.9542 42.1175 49.7482 42.8863 49.3133C46.1592 47.4594 46.893 41.68 45.2041 34.4244C52.4256 32.2385 57.1429 28.7137 57.1429 25.0057ZM41.9777 17.3724C41.5468 18.8487 41.011 20.3708 40.4053 21.8929C39.9278 20.9773 39.4269 20.0618 38.8795 19.1463C38.3437 18.2307 37.773 17.3381 37.2023 16.4683C38.8562 16.7086 40.4519 17.0062 41.9777 17.3724ZM36.6432 29.5605C35.7347 31.1055 34.8029 32.5704 33.8361 33.9323C32.1006 34.081 30.3419 34.1611 28.5714 34.1611C26.8127 34.1611 25.0539 34.081 23.33 33.9437C22.3633 32.5818 21.4198 31.1284 20.5113 29.5949C19.6261 28.0957 18.8224 26.5736 18.0886 25.0401C18.8108 23.5065 19.6261 21.973 20.4997 20.4738C21.4082 18.9288 22.34 17.4639 23.3067 16.1021C25.0422 15.9533 26.801 15.8732 28.5714 15.8732C30.3302 15.8732 32.089 15.9533 33.8128 16.0906C34.7796 17.4525 35.723 18.9059 36.6315 20.4395C37.5167 21.9387 38.3204 23.4607 39.0542 24.9943C38.3204 26.5278 37.5167 28.0613 36.6432 29.5605ZM40.4053 28.0728C41.0343 29.6063 41.5701 31.1398 42.0127 32.6276C40.4869 32.9938 38.8795 33.3028 37.2139 33.5431C37.7846 32.6619 38.3554 31.7578 38.8912 30.8309C39.4269 29.9153 39.9278 28.9883 40.4053 28.0728ZM28.5947 40.2838C27.5115 39.1852 26.4283 37.9606 25.3567 36.6217C26.405 36.6674 27.4766 36.7018 28.5598 36.7018C29.6546 36.7018 30.7379 36.6789 31.7978 36.6217C30.7495 37.9606 29.6663 39.1852 28.5947 40.2838ZM19.9289 33.5431C18.275 33.3028 16.6793 33.0053 15.1535 32.639C15.5844 31.1627 16.1202 29.6406 16.7259 28.1186C17.2034 29.0341 17.7043 29.9496 18.2517 30.8652C18.7991 31.7807 19.3582 32.6734 19.9289 33.5431ZM28.5365 9.72763C29.6197 10.8263 30.7029 12.0508 31.7745 13.3898C30.7262 13.344 29.6547 13.3097 28.5714 13.3097C27.4766 13.3097 26.3933 13.3326 25.3334 13.3898C26.3817 12.0508 27.4649 10.8263 28.5365 9.72763ZM19.9173 16.4683C19.3466 17.3495 18.7758 18.2536 18.2401 19.1806C17.7043 20.0961 17.2034 21.0117 16.7259 21.9272C16.0969 20.3937 15.5611 18.8602 15.1185 17.3724C16.6443 17.0176 18.2517 16.7086 19.9173 16.4683ZM9.37628 30.7965C5.25304 29.0684 2.58575 26.8025 2.58575 25.0057C2.58575 23.209 5.25304 20.9316 9.37628 19.2149C10.378 18.7915 11.4728 18.4138 12.6026 18.0591C13.2666 20.3021 14.1401 22.6368 15.2233 25.0286C14.1518 27.409 13.2899 29.7322 12.6376 31.9638C11.4845 31.6091 10.3896 31.22 9.37628 30.7965ZM15.6427 47.1504C14.0586 46.2577 13.3714 42.8588 13.9072 38.4871C14.0353 37.4113 14.245 36.2783 14.5012 35.1225C16.7841 35.6718 19.2767 36.0952 21.8974 36.3699C23.4698 38.4871 25.1005 40.4097 26.7428 42.092C22.9457 45.5596 19.3815 47.4594 16.9588 47.4594C16.4347 47.4479 15.9921 47.3449 15.6427 47.1504ZM43.2706 38.4298C43.8181 42.8016 43.1425 46.2005 41.5701 47.1046C41.2207 47.3106 40.7664 47.4022 40.2306 47.4022C37.8196 47.4022 34.2438 45.5138 30.4467 42.0691C32.0773 40.3868 33.708 38.4756 35.2571 36.3584C37.8895 36.0838 40.382 35.6603 42.665 35.0996C42.9328 36.2554 43.1425 37.3655 43.2706 38.4298ZM47.7549 30.7965C46.7532 31.22 45.6584 31.5976 44.5286 31.9524C43.8647 29.7093 42.9911 27.3747 41.9079 24.9828C42.9794 22.6024 43.8414 20.2792 44.4936 18.0476C45.6467 18.4024 46.7416 18.7915 47.7666 19.2149C51.8898 20.943 54.5571 23.209 54.5571 25.0057C54.5455 26.8025 51.8782 29.0799 47.7549 30.7965Z" fill="#61DAFB"/>
<path d="M28.5715 29.7621C31.2014 29.7621 33.3334 27.3637 33.3334 24.405C33.3334 21.4463 31.2014 19.0479 28.5715 19.0479C25.9415 19.0479 23.8096 21.4463 23.8096 24.405C23.8096 27.3637 25.9415 29.7621 28.5715 29.7621Z" fill="#61DAFB"/>
</svg>
