<svg width="52" height="50" viewBox="0 0 52 50" fill="none" xmlns="http://www.w3.org/2000/svg">
<g clip-path="url(#clip0)">
<path d="M26.19 28.5714C34.0798 28.5714 40.4757 22.1755 40.4757 14.2857C40.4757 6.39593 34.0798 0 26.19 0C18.3002 0 11.9043 6.39593 11.9043 14.2857C11.9043 22.1755 18.3002 28.5714 26.19 28.5714Z" fill="#036C70"/>
<path d="M38.0952 40.4761C45.3275 40.4761 51.1905 34.6132 51.1905 27.3809C51.1905 20.1486 45.3275 14.2856 38.0952 14.2856C30.8629 14.2856 25 20.1486 25 27.3809C25 34.6132 30.8629 40.4761 38.0952 40.4761Z" fill="#1A9BA1"/>
<path d="M27.9765 49.9998C33.5651 49.9998 38.0955 45.4693 38.0955 39.8808C38.0955 34.2922 33.5651 29.7617 27.9765 29.7617C22.3879 29.7617 17.8574 34.2922 17.8574 39.8808C17.8574 45.4693 22.3879 49.9998 27.9765 49.9998Z" fill="#37C6D0"/>
<path opacity="0.1" d="M28.5711 12.8929V38.2977C28.5651 39.1804 28.0302 39.9735 27.2139 40.3096C26.954 40.4195 26.6747 40.4762 26.3925 40.4763H17.8687C17.8568 40.2739 17.8568 40.0834 17.8568 39.881C17.8529 39.6823 17.8608 39.4835 17.8806 39.2858C18.0985 35.4804 20.4428 32.1228 23.9401 30.6072V28.3929C16.1567 27.1595 10.8469 19.8499 12.0803 12.0664C12.0888 12.0125 12.0977 11.9586 12.1069 11.9048C12.1661 11.5033 12.2496 11.1058 12.3569 10.7144H26.3925C27.5938 10.7189 28.5665 11.6916 28.5711 12.8929Z" fill="black"/>
<path opacity="0.2" d="M25.2024 11.9048H12.1071C10.7842 19.6742 16.0102 27.045 23.7796 28.3678C24.0149 28.4079 24.2511 28.442 24.4881 28.4703C20.7976 30.2203 18.1083 35.1905 17.8797 39.2857C17.8599 39.4835 17.8519 39.6823 17.8559 39.881C17.8559 40.0834 17.8559 40.2738 17.8678 40.4762C17.8893 40.8764 17.941 41.2743 18.0226 41.6667H25.2012C26.0839 41.6608 26.877 41.1258 27.2131 40.3095C27.323 40.0496 27.3797 39.7703 27.3797 39.4881V14.0834C27.3752 12.8825 26.4032 11.91 25.2024 11.9048Z" fill="black"/>
<path opacity="0.2" d="M25.2022 11.9048H12.107C10.7844 19.6749 16.0111 27.046 23.7813 28.3686C23.9402 28.3957 24.0996 28.42 24.2594 28.4417C20.6879 30.3179 18.1046 35.2762 17.8808 39.2857H25.2022C26.4016 39.2767 27.3717 38.3066 27.3808 37.1072V14.0834C27.3762 12.8821 26.4035 11.9094 25.2022 11.9048Z" fill="black"/>
<path opacity="0.2" d="M24.0113 11.9048H12.1066C10.8577 19.2399 15.4539 26.3037 22.6661 28.1334C19.9352 31.2535 18.2603 35.1568 17.8804 39.2857H24.0114C25.2127 39.2812 26.1854 38.3085 26.1899 37.1072V14.0834C26.1893 12.8805 25.2143 11.9055 24.0113 11.9048Z" fill="black"/>
<path d="M2.18214 11.9048H24.0083C25.2134 11.9048 26.1904 12.8818 26.1904 14.0869V35.9131C26.1904 37.1183 25.2134 38.0953 24.0083 38.0953H2.18214C0.976976 38.0953 0 37.1183 0 35.9131V14.0869C0 12.8818 0.976976 11.9048 2.18214 11.9048Z" fill="url(#paint0_linear)"/>
<path d="M9.74659 24.7334C9.23521 24.3942 8.80805 23.9426 8.49777 23.4132C8.19713 22.8597 8.04728 22.2369 8.06324 21.6072C8.03646 20.7547 8.32416 19.9221 8.87156 19.2679C9.4468 18.613 10.1903 18.128 11.0216 17.8655C11.9689 17.5537 12.9612 17.4001 13.9585 17.4108C15.27 17.3629 16.5796 17.5462 17.8275 17.9524V20.6906C17.2853 20.3621 16.6947 20.121 16.0775 19.9763C15.4078 19.812 14.7206 19.7297 14.0311 19.731C13.304 19.7043 12.5815 19.8573 11.9275 20.1763C11.4226 20.394 11.0952 20.8907 11.0942 21.4406C11.0921 21.7741 11.2203 22.0953 11.4513 22.3358C11.7242 22.6194 12.0471 22.8502 12.4037 23.0168C12.8005 23.2144 13.3958 23.4771 14.1894 23.8049C14.2768 23.8325 14.362 23.8667 14.4442 23.9073C15.2253 24.2125 15.9789 24.5841 16.6966 25.018C17.2401 25.3531 17.6963 25.8125 18.0276 26.3584C18.3672 26.9773 18.5318 27.6769 18.5037 28.3823C18.5425 29.2575 18.2747 30.1189 17.7466 30.818C17.2202 31.4606 16.5164 31.9343 15.7228 32.1799C14.7893 32.4724 13.8151 32.6139 12.837 32.5989C11.9595 32.6029 11.0832 32.5312 10.218 32.3846C9.48742 32.2651 8.77447 32.0556 8.09538 31.7608V28.8739C8.74451 29.3375 9.46972 29.684 10.2382 29.8977C11.0042 30.1364 11.8004 30.2639 12.6025 30.2763C13.345 30.3233 14.0861 30.166 14.7454 29.8215C15.2073 29.5609 15.4882 29.0672 15.4764 28.537C15.4794 28.1681 15.3335 27.8135 15.0716 27.5537C14.7459 27.2339 14.3688 26.9712 13.9561 26.7763C13.48 26.5382 12.7787 26.2243 11.8526 25.8346C11.1157 25.5384 10.4103 25.1695 9.74659 24.7334Z" fill="white"/>
</g>
<defs>
<linearGradient id="paint0_linear" x1="4.5498" y1="10.1997" x2="21.6407" y2="39.8003" gradientUnits="userSpaceOnUse">
<stop stop-color="#058F92"/>
<stop offset="0.5" stop-color="#038489"/>
<stop offset="1" stop-color="#026D71"/>
</linearGradient>
<clipPath id="clip0">
<rect width="51.1905" height="50" fill="white"/>
</clipPath>
</defs>
</svg>
