<svg width="50" height="50" viewBox="0 0 50 50" fill="none" xmlns="http://www.w3.org/2000/svg">
<g clip-path="url(#clip0)">
<path fill-rule="evenodd" clip-rule="evenodd" d="M23.5557 36.3372C25.4906 36.0857 27.3581 35.4947 29.0509 34.5452C33.2319 32.2007 35.6471 28.1707 35.8515 23.1967L35.8693 22.7662H41.6558C41.2911 19.8167 40.1818 17.0977 38.5262 14.8032L32.6062 18.6322C34.4072 21.4772 34.6394 24.6307 33.272 27.7807C31.6522 31.5117 27.8339 34.7812 23.5557 36.3372Z" fill="#EE3524"/>
<path fill-rule="evenodd" clip-rule="evenodd" d="M41.7436 23.6641H36.7187C36.3804 28.6966 33.7608 32.9316 29.4846 35.3296C27.044 36.6981 24.2662 37.3791 21.4297 37.3791C19.2318 37.3791 16.9987 36.9686 14.8594 36.1546C17.4309 37.7716 20.3204 38.6561 23.3136 38.6651H23.3592C28.7647 38.6651 33.6169 35.7836 36.3461 30.9501L36.5773 30.5411L39.9397 32.6891C41.122 30.3501 41.7928 27.7066 41.7928 24.9066C41.7928 24.4881 41.7729 24.0751 41.7436 23.6641Z" fill="#EE3524"/>
<path fill-rule="evenodd" clip-rule="evenodd" d="M23.3595 39.5633H23.3113C17.9257 39.5473 12.8656 36.8603 9.26465 32.2348C12.0009 38.0703 17.8965 42.1188 24.7144 42.1188C31.0352 42.1188 36.5607 38.6378 39.5137 33.4803L36.8847 31.8008C33.9555 36.6728 28.9361 39.5633 23.3595 39.5633Z" fill="#EE3524"/>
<path fill-rule="evenodd" clip-rule="evenodd" d="M24.7142 0C11.0649 0 0 11.151 0 24.9065C0 38.662 11.0649 49.813 24.7142 49.813C38.3634 49.813 49.4283 38.662 49.4283 24.9065C49.4283 11.151 38.3634 0 24.7142 0ZM24.7142 43.0165C14.7894 43.0165 6.74401 34.9085 6.74401 24.9065C6.74401 14.905 14.7894 6.797 24.7142 6.797C34.6389 6.797 42.6843 14.905 42.6843 24.9065C42.6843 34.9085 34.6389 43.0165 24.7142 43.0165Z" fill="#EE3524"/>
</g>
<defs>
<clipPath id="clip0">
<rect width="50" height="50" fill="white"/>
</clipPath>
</defs>
</svg>
