<svg width="50" height="50" viewBox="0 0 50 50" fill="none" xmlns="http://www.w3.org/2000/svg">
<g clip-path="url(#clip0)">
<path d="M48.7996 22.6096L46.9573 21.0373L48.9495 18.6988C50.5331 16.84 50.2997 14.0523 48.4291 12.4828C46.5867 10.9368 43.8189 11.1685 42.2595 12.9993L35.1556 21.3384V2.92969C35.1556 1.31426 33.8413 0 32.226 0H2.92959C1.31426 0 0 1.31426 0 2.92969V47.0703C0 48.6857 1.31426 50 2.92959 50H32.2258C33.8412 50 35.1554 48.6857 35.1554 47.0703V34.8912L45.0574 23.2676L46.8979 24.8382C47.1012 25.0116 47.1267 25.3193 46.9547 25.5238L40.5936 33.0905C40.073 33.7098 40.1528 34.6338 40.7722 35.1544C41.3911 35.6749 42.3154 35.5951 42.8359 34.9758L49.1972 27.4091C50.4009 25.977 50.2226 23.8239 48.7996 22.6096V22.6096ZM44.4896 14.8992C45.0094 14.2888 45.932 14.2118 46.546 14.727C47.1695 15.2504 47.2473 16.1793 46.7194 16.7989L44.7288 19.1355L42.5005 17.2339L44.4896 14.8992ZM2.92959 47.0703V2.92969H32.2258V24.7774L27.4268 30.4109C24.7863 33.5105 22.8389 37.1901 21.7527 41.1134H13.1833C12.3743 41.1134 11.7185 41.7692 11.7185 42.5782C11.7185 43.3872 12.3743 44.0431 13.1833 44.0431C13.3143 44.0431 22.7456 44.0436 22.8695 44.0421C23.2164 44.0467 23.4112 43.9487 23.6571 43.844C26.8303 42.4939 29.7513 40.5425 32.2258 38.1375V47.0703H2.92959ZM31.7792 34.3366C29.9397 36.4961 27.7238 38.3394 25.269 39.7656C26.2886 37.0533 27.7767 34.5178 29.6567 32.3107L40.6006 19.4642L42.8289 21.3657L31.7792 34.3366Z" fill="#122797"/>
<path d="M21.5244 8.88672H27.9696C28.7786 8.88672 29.4345 8.23086 29.4345 7.42188C29.4345 6.61289 28.7786 5.95703 27.9696 5.95703H21.5244C20.7154 5.95703 20.0596 6.61289 20.0596 7.42188C20.0596 8.23086 20.7154 8.88672 21.5244 8.88672V8.88672Z" fill="#122797"/>
<path d="M7.46192 14.7461H27.8716C28.6806 14.7461 29.3364 14.0902 29.3364 13.2812C29.3364 12.4723 28.6806 11.8164 27.8716 11.8164H7.46192C6.65293 11.8164 5.99707 12.4723 5.99707 13.2812C5.99707 14.0902 6.65293 14.7461 7.46192 14.7461V14.7461Z" fill="#122797"/>
<path d="M7.46192 20.6055H27.9288C28.7378 20.6055 29.3937 19.9496 29.3937 19.1406C29.3937 18.3316 28.7378 17.6758 27.9288 17.6758H7.46192C6.65293 17.6758 5.99707 18.3316 5.99707 19.1406C5.99707 19.9496 6.65293 20.6055 7.46192 20.6055Z" fill="#122797"/>
<path d="M7.46191 26.4648H23.5344C24.3434 26.4648 24.9992 25.809 24.9992 25C24.9992 24.191 24.3434 23.5352 23.5344 23.5352H7.46191C6.65293 23.5352 5.99707 24.191 5.99707 25C5.99707 25.809 6.65293 26.4648 7.46191 26.4648Z" fill="#122797"/>
<path d="M20.6452 30.8594C20.6452 30.0504 19.9894 29.3945 19.1804 29.3945H7.46191C6.65293 29.3945 5.99707 30.0504 5.99707 30.8594C5.99707 31.6684 6.65293 32.3242 7.46191 32.3242H19.1805C19.9895 32.3242 20.6452 31.6684 20.6452 30.8594Z" fill="#122797"/>
</g>
<defs>
<clipPath id="clip0">
<rect width="50" height="50" fill="white"/>
</clipPath>
</defs>
</svg>
