<svg width="51" height="50" viewBox="0 0 51 50" fill="none" xmlns="http://www.w3.org/2000/svg">
<g clip-path="url(#clip0)">
<path d="M0.0878941 24.9561C0.102238 11.16 11.3041 -0.00909691 25.1022 0.00832113C38.9004 0.0257392 50.0654 11.2245 50.0469 25.0206C50.0285 38.8167 38.8512 49.9673 25.0674 49.9673C11.2641 49.9602 0.0807219 38.7634 0.0878941 24.9602V24.9561ZM24.5613 33.5093C22.6234 33.566 20.6856 33.3923 18.7887 32.9919C18.0989 32.8514 17.4527 32.5478 16.9041 32.1067C16.3555 31.6656 15.9204 31.0996 15.635 30.4561C15.0701 29.1535 14.7969 27.1446 14.8154 24.4294C14.8257 23.0106 14.9146 21.5935 15.0817 20.1845C15.2443 18.8123 15.4069 17.6815 15.5695 16.7921L15.7406 15.9079C15.7426 15.882 15.7426 15.856 15.7406 15.83C15.7402 15.7106 15.6981 15.5951 15.6216 15.5035C15.545 15.4118 15.4389 15.3497 15.3215 15.328L12.0992 14.8259H12.0295C11.9155 14.8271 11.8052 14.8662 11.7159 14.937C11.6266 15.0079 11.5636 15.1066 11.5367 15.2173C11.4813 15.4223 11.4496 15.577 11.3533 16.0688C11.1688 17.0175 10.9988 17.9427 10.8092 19.2921C10.6105 20.7577 10.4894 22.2328 10.4465 23.7112C10.3758 24.7411 10.3758 25.7746 10.4465 26.8044C10.5223 29.5367 10.9916 31.7204 11.8543 33.3557C12.717 34.9909 14.1781 36.1664 16.2375 36.8823C18.2969 37.6002 21.1658 37.9516 24.844 37.9366H25.3072C28.9895 37.9516 31.8584 37.6002 33.9137 36.8823C35.969 36.1644 37.4301 34.9889 38.2969 33.3557C39.1596 31.7204 39.6292 29.5367 39.7057 26.8044C39.7754 25.7745 39.7754 24.7411 39.7057 23.7112C39.6625 22.2328 39.541 20.7577 39.342 19.2921C39.1535 17.9602 38.9824 17.038 38.799 16.0688C38.6965 15.577 38.6699 15.4243 38.6145 15.2173C38.5886 15.106 38.5258 15.0068 38.4363 14.9357C38.3469 14.8647 38.236 14.826 38.1217 14.8259H38.0387L34.8164 15.328C34.6977 15.3477 34.5899 15.4091 34.5123 15.5011C34.4348 15.5931 34.3926 15.7097 34.3932 15.83C34.3912 15.856 34.3912 15.882 34.3932 15.9079L34.5633 16.7921C34.7259 17.6842 34.8902 18.815 35.0561 20.1845C35.2209 21.5937 35.3084 23.0107 35.3184 24.4294C35.3458 27.1398 35.0725 29.147 34.4988 30.4509C34.2157 31.0935 33.7834 31.6593 33.2377 32.1012C32.6921 32.5432 32.0488 32.8485 31.3615 32.9919C29.4661 33.3933 27.5297 33.568 25.593 33.5124L24.5613 33.5093Z" fill="#3544B1"/>
</g>
<defs>
<clipPath id="clip0">
<rect width="50.1025" height="50" fill="white"/>
</clipPath>
</defs>
</svg>
