<svg width="484" height="23" viewBox="0 0 484 23" fill="none" xmlns="http://www.w3.org/2000/svg">
<path fill-rule="evenodd" clip-rule="evenodd" d="M5.59931 0.370829C197.018 22.1496 336.748 15.8443 479.702 3.25487C481.349 3.1098 482.835 4.32947 483.021 5.97907C483.207 7.62867 482.023 9.08354 480.375 9.22861C337.183 21.8391 197.022 28.1688 5.06621 6.32891C3.41501 6.14104 2.19581 4.65499 2.343 3.00971C2.49022 1.36443 3.9481 0.182965 5.59931 0.370829Z" fill="#FFDB20"/>
<path fill-rule="evenodd" clip-rule="evenodd" d="M2.57948 8.53755C196.93 24.0358 337.02 21.0714 482.364 11.4616C483.189 11.407 483.919 12.0325 483.994 12.8587C484.07 13.6849 483.461 14.3989 482.636 14.4534C337.176 24.071 196.937 27.0384 2.41441 11.5264C1.58678 11.4604 0.952847 10.7378 0.998403 9.91248C1.04399 9.08713 1.75188 8.47155 2.57948 8.53755Z" fill="#FFDB20"/>
</svg>