<svg width="50" height="50" viewBox="0 0 50 50" fill="none" xmlns="http://www.w3.org/2000/svg">
<path d="M3.54004 24.9023C3.54004 33.3584 8.45427 40.6661 15.5803 44.1291L5.38963 16.208C4.20427 18.8649 3.54004 21.8052 3.54004 24.9023Z" fill="#00749A"/>
<path d="M39.3253 23.8246C39.3253 21.1843 38.3769 19.3559 37.5635 17.9327C36.4805 16.173 35.4655 14.6827 35.4655 12.923C35.4655 10.9591 36.9549 9.1311 39.0529 9.1311C39.1476 9.1311 39.2375 9.14288 39.3297 9.14817C35.5289 5.66606 30.4651 3.54004 24.9033 3.54004C17.4399 3.54004 10.8736 7.36931 7.05371 13.1693C7.55493 13.1843 8.02729 13.1949 8.42851 13.1949C10.6631 13.1949 14.122 12.9238 14.122 12.9238C15.2736 12.8559 15.4094 14.5474 14.259 14.6835C14.259 14.6835 13.1017 14.8197 11.8139 14.8872L19.5935 38.0274L24.2688 24.0059L20.9403 14.8864C19.7899 14.8189 18.7001 14.6827 18.7001 14.6827C17.5488 14.6152 17.6838 12.8551 18.835 12.923C18.835 12.923 22.3631 13.1941 24.4622 13.1941C26.6964 13.1941 30.1557 12.923 30.1557 12.923C31.3082 12.8551 31.4435 14.5465 30.2927 14.6827C30.2927 14.6827 29.133 14.8189 27.8476 14.8864L35.5679 37.8514L37.6988 30.7307C38.6224 27.7758 39.3253 25.6535 39.3253 23.8246Z" fill="#00749A"/>
<path d="M25.2779 26.771L18.8682 45.3966C20.782 45.9592 22.806 46.2669 24.9031 46.2669C27.3909 46.2669 29.7767 45.8368 31.9974 45.056C31.9401 44.9645 31.8881 44.8673 31.8454 44.7616L25.2779 26.771Z" fill="#00749A"/>
<path d="M43.6487 14.6528C43.7405 15.3333 43.7926 16.0638 43.7926 16.8496C43.7926 19.0175 43.3877 21.4545 42.1682 24.5016L35.6426 43.3687C41.9938 39.665 46.2657 32.7841 46.2657 24.9028C46.2662 21.1886 45.3174 17.6959 43.6487 14.6528Z" fill="#00749A"/>
<path d="M24.9033 0C11.172 0 0 11.1711 0 24.9024C0 38.6354 11.172 49.8061 24.9033 49.8061C38.6341 49.8061 49.8077 38.6354 49.8077 24.9024C49.8073 11.1711 38.6341 0 24.9033 0ZM24.9033 48.6646C11.8016 48.6646 1.14187 38.0049 1.14187 24.9024C1.14187 11.8008 11.8012 1.14187 24.9033 1.14187C38.0045 1.14187 48.6634 11.8008 48.6634 24.9024C48.6634 38.0049 38.0045 48.6646 24.9033 48.6646Z" fill="#00749A"/>
</svg>
