<svg width="57" height="50" viewBox="0 0 57 50" fill="none" xmlns="http://www.w3.org/2000/svg">
<g clip-path="url(#clip0)">
<path fill-rule="evenodd" clip-rule="evenodd" d="M16.1709 0C14.6573 0.00321841 13.1756 0.864721 12.4137 2.17897L0.562578 22.821C-0.187526 24.1388 -0.187526 25.8612 0.562578 27.179L12.4137 47.821C13.1757 49.1353 14.6573 49.997 16.1709 50H39.873C41.3867 49.9968 42.8683 49.1353 43.6303 47.821L55.4814 27.179C56.2315 25.8612 56.2314 24.1388 55.4814 22.821L43.6303 2.17897C42.8683 0.864721 41.3867 0.00297703 39.873 0H16.1709ZM16.386 12.0758C16.4186 12.0726 16.4528 12.0726 16.4854 12.0758H20.5737C20.7546 12.0796 20.9302 12.1845 21.0206 12.342L27.9558 24.7339C27.9907 24.7951 28.0132 24.8634 28.0217 24.9335C28.0303 24.8634 28.0527 24.7951 28.0877 24.7339L35.0063 12.342C35.0995 12.1797 35.2833 12.0742 35.4697 12.0758H39.558C39.92 12.0791 40.1911 12.5363 40.0214 12.8576L33.2518 25L40.0214 37.1258C40.2071 37.449 39.9294 37.9274 39.558 37.9242H35.4697C35.28 37.9225 35.0952 37.8098 35.0063 37.6414L28.0877 25.2495C28.0528 25.1882 28.0303 25.12 28.0217 25.0499C28.0132 25.12 27.9907 25.1883 27.9558 25.2495L21.0206 37.6414C20.9343 37.805 20.7578 37.9167 20.5737 37.9242H16.4854C16.114 37.9274 15.8363 37.449 16.022 37.1258L22.7916 25L16.022 12.8576C15.8597 12.5644 16.0577 12.1384 16.386 12.0758Z" fill="#3498DB"/>
</g>
<defs>
<clipPath id="clip0">
<rect width="56.044" height="50" fill="white"/>
</clipPath>
</defs>
</svg>
